<svg xmlns="http://www.w3.org/2000/svg" version="1.0" viewBox="0 0 331.122 413.093"><g stroke="#000" stroke-width=".036" stroke-miterlimit="10" fill-rule="evenodd"><path d="M83.079 53.509c-1.584 1.296-2.52 3.6-2.952 6.912-.396 3.348-.288 7.488.468 12.816-2.88 1.656-5.364 3.672-7.308 6.192-2.016 2.484-3.492 5.22-4.572 8.496 1.368-1.404 2.628-2.52 4.32-3.492 1.584-1.044 3.24-1.656 5.112-2.232-2.016 2.808-3.42 5.94-4.212 9.936-.864 3.96-1.116 9.683-.756 13.283.288 3.35 1.908 7.49 2.34 6.98.144-.61-1.26-7.16-.468-10.47.792-3.493 4.068-7.777 5.544-9.793 1.404-2.124 2.952-2.916 2.988-1.98-.18 1.008-2.916 4.536-3.204 7.812-.36 3.091.54 7.631 1.584 10.831 1.008 3.06 4.104 8.14 4.716 7.6.504-.72-1.656-7.78-1.224-11.45.468-3.78 2.448-8.313 3.852-10.833 1.296-2.556 2.52-3.996 3.816-4.32-.54 5.22-.576 12.493-.252 22.503.252 9.93.864 25.59 2.124 36.72 1.152 11.01 2.736 15.69 5.325 29.01 2.6 13.29 5.51 33.52 10.3 50.15 4.72 16.63 12.46 33.16 17.96 48.46 5.37 15.12 9.51 30.13 14.37 41.97 4.82 11.77 9.61 20.95 14.51 28.12l7.09-1.98c-5.73-11.85-10.44-22.14-14.15-31.72-3.82-9.57-4.64-12.89-8.32-25.05-3.81-12.42-9.36-30.93-14-47.88-4.79-17.1-10.48-36.58-14-53.14-3.53-16.56-5.48-32.11-6.95-45.4-1.51-13.39-1.84-25.7-2.23-34.16-.54-8.495-.65-13.751-.62-16.199.76 1.728 1.84 4.464 2.85 8.496.97 3.993 2.59 13.863 3.49 15.303.86 1.18 1.44-3.03 1.73-7.24.14-4.25-.11-10.151-.76-17.855 2.02.72 3.75 2.484 5.58 5.148 1.73 2.664 3.39 6.227 4.97 10.837 1.12-2.13 1.4-4.43 1.01-6.769-.47-2.448-1.62-4.932-3.6-7.596 2.95 1.296 5.04 2.916 6.8 4.464 1.62 1.512 2.7 3.348 3.1 5.111 1.11-2.663.9-5.219-.51-7.955-1.51-2.772-4.1-5.436-8.17-8.28 4.07.684 7.53 1.62 10.66 2.808 3.09 1.08 5.61 2.448 7.7 3.96-1.62-2.376-3.81-4.536-6.59-6.876-2.8-2.376-6.19-4.536-10.15-6.876 1.91-1.656 3.64-3.06 5.33-4.212 1.62-1.296 4.68-2.628 4.46-3.023-.39-.468-4.03-.18-6.44.468-2.41.576-5.18 1.62-8.17 3.132 1.33-.828 1.94-2.808 2.23-5.94.25-3.204-.22-7.56-1.01-13.068-11.88-.577-23.795-1.153-35.711-1.729z"/><path d="M83.583 54.445c-1.188 1.296-2.016 3.204-2.34 5.58-.432 2.376-.396 5.904.108 8.64.288 2.628 1.08 5.184 2.376 7.092 1.368 1.8 3.096 2.952 5.58 3.996 2.376.9 5.22 1.44 8.676 1.62.612-.648 1.296-1.116 2.197-1.404.86-.36 1.91-.684 2.99-.576 1.04.036 1.91.396 2.99.936 1.33-1.152 2.52-2.016 3.7-2.448a5.413 5.413 0 013.35-.252c1.44-.756 2.59-1.944 3.46-3.708.83-1.764 1.37-3.708 1.62-6.66.18-3.024.14-6.84-.25-11.448-11.49-.432-22.974-.9-34.457-1.368z" fill="green"/><path d="M81.243 74.029c-1.044.036-2.196.828-3.6 1.98-1.512 1.296-3.672 3.6-4.824 5.256-1.152 1.512-1.908 2.664-2.124 3.6 1.8-1.44 3.276-2.412 4.968-2.916 1.584-.612 3.024-.72 4.464-.468-1.26 1.404-2.34 3.276-3.24 5.616-.972 2.34-1.944 6.228-2.232 8.172-.324 1.836-.288 3.132.396 2.772.684-.54 2.016-3.708 3.456-5.472 1.296-1.944 2.916-3.708 4.464-5.148 1.368-1.476 4.068-3.6 4.212-2.916.072.576-2.556 4.536-3.456 7.02-.972 2.268-2.088 4.788-2.232 7.56-.144 2.735.828 8.025 1.368 9.215.324 1.08.684-.32 1.224-2.41.576-2.31.864-7.525 2.232-10.369 1.296-2.772 3.528-4.5 5.58-6.3 1.908-1.98 3.888-3.672 5.94-5.22l-.108-1.764c-3.492.18-6.516-.216-8.928-1.044-2.628-.936-4.572-2.844-5.832-4.068-1.296-1.26-1.872-2.196-1.728-3.096zM99.099 82.237c.864 1.296 1.801 2.736 2.951 4.32 1.05 1.512 2.74 2.916 3.71 4.896.83 1.872 1.22 3.852 1.87 6.768.72 2.879 1.51 8.929 2.23 10.509.58 1.44 1.3.76 1.48-1.65.07-2.52-.54-10.335-.72-13.287-.25-3.096.04-3.384-.4-4.896-.57-1.656-2.88-4.032-2.59-4.212.22-.216 2.56 1.944 4.11 3.276 1.54 1.26 3.02 2.124 4.82 4.536 1.62 2.376 4.43 8.823 5.22 9.463.76.4-.29-4.207-.9-6.187-.79-2.016-3.56-4.68-3.46-5.472.08-.828 2.56.18 3.96.684 1.41.504 2.77 1.152 4.11 2.232 1.19 1.044 2.12 2.232 2.95 3.852-.11-2.268-1.01-4.572-2.7-6.768-1.8-2.304-5.26-4.716-7.45-6.66-2.27-2.016-4-3.636-5.58-5.004-1.19-.252-2.31-.144-3.35.324-1.15.468-2.09 1.08-3.1 2.232-1.65-.576-3.06-.72-4.21-.576s-2.267.684-2.951 1.62zM114.83 78.277a26.01 26.01 0 001.98-1.62c.51-.504.83-1.188 1.12-1.656 3.38-1.439 5.72-2.232 7.41-2.771 1.59-.54 2.56-.72 2.24-.145-.54.54-3.53 2.628-4.68 3.636-1.12.792-2.16 1.404-2.02 1.98.04.468.47.504 2.27 1.62 1.76 1.152 5.79 3.564 7.92 5.148 1.94 1.404 4.46 3.348 3.96 3.492-.54.036-4.75-2.231-7.2-2.916-2.59-.684-5.22-1.116-8.03-1.152-1.66-1.872-3.31-3.744-4.97-5.616z" fill="green"/><path d="M98.451 85.621l-3.708 3.852c-.288 12.307-.18 23.547.324 34.377.468 10.77.504 15.77 2.592 29.74 2.124 13.89 5.981 37.83 9.471 52.95 3.2 14.98 6.01 23.37 10.37 36.4 4.28 13 11.48 30.02 15.33 40.68 3.64 10.37 4.29 13.97 7.09 21.78 2.78 7.85 6.56 17.86 9.69 24.62 3.09 6.59 5.9 11.38 8.71 14.66l3.78-.87c-3.67-7.02-7.56-15.98-11.81-27.32-4.43-11.49-9.68-27.83-13.68-40.43-3.96-12.64-6.66-23.11-9.9-34.63-3.45-11.59-7.09-23.19-9.93-34.24-2.92-11.19-4.72-18.5-7.06-32.18-2.45-13.86-5.51-37.44-6.84-49.79-1.3-12.38-.61-18.11-.72-23.98-.22-5.935-.25-9.607-.25-11.299-1.16-1.44-2.307-2.88-3.459-4.32z" fill="#5c6b2e"/><path d="M48.159 15.673c-2.088-1.188-3.528-1.728-4.716-1.764-1.224-.036-1.476.756-2.124 1.548-.72.72-1.872 1.908-1.908 2.88-.072.864.36 1.548 1.44 2.448 1.08.864 2.52 1.548 4.716 2.448-2.664.072-4.572.216-6.156.432-1.62.18-2.268.108-3.06.9-.828.684-2.16 2.772-1.656 3.78.432.936 1.8 1.764 4.248 2.196-2.34-.108-3.816.144-4.716.9-.864.72-.648 1.836-.468 3.348.036 1.368.288 4.14 1.188 4.86.9.612 2.268.072 4.248-1.332-1.116.9-1.764 1.728-1.656 2.88-.108 1.116.324 3.276 1.872 3.564 1.62.18 3.996-.684 7.56-2.448-1.656 1.8-2.916 2.952-3.78 3.996-.972.792-1.44.864-1.404 1.584 0 .792.576 2.844 1.872 3.096 1.296.18 3.06-.54 5.688-2.016-.756 2.52-.864 4.32-.72 5.544.18 1.116 1.188 1.188 1.908 1.584.648.288 1.08 1.332 2.124.648.972-.72 2.304-2.34 3.996-4.86-.432 1.728-.216 3.204.252 4.428.432 1.224 2.016 2.376 2.808 2.88.72.36 1.08.216 1.908-.432.72-.684 1.584-1.872 2.592-3.564-.216 2.952.216 4.86 1.152 6.012.936 1.044 3.456.684 4.5.432.9-.396 1.296-1.116 1.188-2.448-.108 2.124.36 3.528 1.404 4.212.9.54 3.564.144 4.5-.216.9-.396 1.332-1.008 1.152-1.98-.36 1.044-.036 1.98.972 2.412.972.468 3.816 1.224 4.932.468 1.008-.9 1.404-2.7 1.188-5.544.72 1.26 1.584 2.124 2.592 2.88 1.044.684 2.196 1.26 3.312 1.332 1.008-.036 2.016-.576 2.592-1.332.396-.828.396-1.944 0-3.348l2.844.684c-.72 2.484-.648 4.428.216 5.544.864 1.08 3.781 2.268 4.721 1.332.82-1.044.86-3.276.25-7.092l3.78 1.332c-.18 1.908.18 3.312.93 4.212.69.756 2.92 1.692 3.78.864.8-.864 1.19-2.808 1.19-5.976.79.864 1.91 1.548 3.06 2.448 1.08.792 2.74 2.304 4 2.448 1.19 0 3.17-1.044 3.31-2.016.11-1.044-.94-2.448-2.84-4.212 1.87.504 3.24 1.044 4.24 1.764.83.684.29 1.944 1.44 2.232 1.12.144 4.72-.324 5.4-1.116.62-.864.08-2.196-1.62-3.996 2.42 1.44 4.14 2.376 5.19 3.096.93.612 0 .864.93.9.9 0 3.89-.072 4.5-.9.51-1.008-.54-2.808-1.18-4.428-.69-1.584-1.59-3.168-2.85-4.896 1.77-.36 3.13-.432 4.25-.216.97.18.9.792 2.12 1.548 1.23.72 3.6 2.556 5.19 2.88 1.51.252 2.91-.756 3.78-1.08.65-.54 1.44-.504.72-1.548-.83-1.08-2.31-2.592-4.97-4.68 3.24.216 5.76.288 7.56.216 1.58-.216 2.74.18 3.06-.9.36-1.224.25-4.32-.47-5.544-.75-1.296-2.01-1.116-3.78-1.548-1.91-.504-4.25-.828-7.31-1.116 2.02-.72 4.11-1.332 6.12-1.98 1.95-.612 4.79-.972 5.91-1.764.93-.864.72-2.484.47-3.348-.26-1.008.28-2.196-1.88-2.448-2.23-.288-6.01-.108-11.34.684 1.34-.288 2.88-1.08 4.25-2.232 1.41-1.332 4.21-3.24 4.25-4.896-.11-1.692-3.17-4.032-4.46-4.644-1.41-.648-2.49-.36-3.53.864l-4.75-2.196c2.05-1.332 2.8-2.52 2.12-3.564-.65-1.152-4.54-2.952-6.12-2.88-1.73.036-2.41 2.088-4 3.096-1.69.828-3.49 1.62-5.68 2.232 1.15-2.52 1.94-4.32 2.37-5.544.36-1.26 1.08-1.116.22-1.8-1.05-.72-4-2.592-5.65-2.412-1.62.108-2.96 1.26-4 3.312 1.12-3.024 1.37-5.22.47-6.444-1.01-1.368-4.25-1.044-5.69-1.116-1.44-.18-1.73-.468-2.81.684-1.22 1.224-2.59 3.24-4.25 6.444l-3.06-.684c.29-2.916.08-4.86-.5-5.976-.68-1.116-2.05-.792-3.28-.684-1.257-.072-3.453-.036-4.245.684-.9.72-1.224 1.8-.972 3.528-.468-2.376-1.296-3.924-2.34-4.644-1.188-.828-2.988-.756-4.032.216-1.008.936-1.584 2.664-1.872 5.328-.396-2.88-1.368-4.608-3.06-5.328-1.8-.792-5.976-.144-7.092 1.116s-1.008 3.204.468 6.228h-2.34c-.288-1.62-1.044-2.736-2.124-3.348-1.08-.72-3.276-.54-4.5-.432-1.404 0-2.7.432-3.312.864-.648.324-.72.972-.216 1.548-.144-.972-.648-1.584-1.656-1.548-1.152-.108-3.492.612-4.5 1.332-.972.684-1.44 1.8-1.404 2.916-.144.972.216 2.052.936 3.096-1.656-.72-3.024-1.044-4.248-1.116-1.296-.18-2.124 0-3.06.684-.937.72-1.8 1.8-2.592 3.528z"/><path d="M53.667 20.065a50.808 50.808 0 00-5.184-2.952c-1.728-.828-3.456-1.728-4.608-1.728-1.188-.036-1.728.576-2.16 1.296-.54.576-1.26 1.368-.792 2.232.432.756 1.62 1.584 3.276 2.628 1.584.972 3.564 2.268 6.084 3.6l-1.26.216c-.648-.432-1.44-.72-2.232-.864-.936-.18-1.188-.216-2.7-.108-1.656-.036-5.04-.072-6.408.324-1.332.36-1.188 1.008-1.368 1.8-.324.684-.432 1.872.252 2.448.684.468 2.304.36 4.032.504 1.728.072 3.744.072 6.192 0-.504.54-1.728 1.008-3.276 1.404-1.656.252-5.22.18-6.516.612-1.368.324-1.26 1.044-1.476 2.016-.288.9-.288 2.88 0 3.708.144.828.288 1.188 1.26 1.08 1.008-.324 3.024-1.62 4.5-2.34 1.332-.756 2.016-1.764 3.6-1.908 1.548-.108 3.204.144 5.4 1.044-2.664-.432-4.608-.468-5.976-.108-1.368.216-1.332 1.116-2.124 2.016-.9.828-2.88 2.232-3.168 3.384-.324 1.08.108 2.628 1.152 3.096.9.288 2.772-.36 4.5-.972 1.62-.684 3.42-1.62 5.4-2.952 3.348-.684 5.004-.972 5.256-.864.18.108-2.952.756-4.14 1.512-1.26.576-1.98 1.152-3.276 2.412-1.476 1.26-4.104 3.708-4.824 4.968-.828 1.044.18 1.332.54 1.692.288.252.54.504 1.584.216.972-.288 2.484-.972 4.392-1.908 1.944-1.08 4.14-2.268 6.984-3.996-2.34 1.26-4.068 2.592-5.184 3.996-1.188 1.368-1.476 3.096-1.692 4.356-.36 1.188-.324 2.016.108 2.628.468.54 1.476.864 2.484.54.9-.612 1.836-2.304 2.808-3.276.828-.9 1.584-1.656 2.268-2.124-.144 1.368-.144 2.484 0 3.492.072 1.008.288 1.728.792 2.448.468.648 1.224 1.512 2.124 1.476.72-.18 1.764-1.116 2.592-2.124a15.651 15.651 0 002.124-3.816c.036 2.196.108 4.032.36 5.508.216 1.44.144 2.556.9 3.204.576.612 2.016.792 2.916.396.9-.432 1.512-1.584 2.232-3.168.18 1.944.648 3.312 1.26 4.248.54.9 1.692 1.188 2.484 1.26.756.036 1.512-.288 2.124-.972.576-.792.972-1.908 1.332-3.492-.18 1.692-.072 2.88.468 3.708.468.756 1.8.972 2.592 1.08.648 0 1.116-.432 1.548-.864.396-.468.756-.828.936-2.196.036-1.584-.072-3.6-.468-6.588 1.116 2.412 2.196 4.176 3.384 5.724 1.08 1.404 2.52 2.664 3.492 2.952.9.216 1.836-.432 2.124-1.26.252-.9-.108-2.16-.792-3.924l4.284 1.188c.756-3.924 1.152-5.868 1.332-5.832 0 0-.324 4.14-.432 5.904-.252 1.62-.324 3.024-.216 4.068.18.936.54 1.656 1.224 2.016.54.288 1.836.72 2.379.324.47-.54.32-1.764.54-2.844.07-1.08.11-2.448.11-3.816l5.4 1.584c0 1.044.07 1.908.36 2.736.28.792.64 1.62 1.22 1.908.5.108 1.55-.108 2.02-.937.32-.9.54-2.268.36-4.248-2.38-2.556-3.35-3.852-3.06-3.888.28 0 3.38 2.52 4.96 3.672 1.52 1.044 2.78 1.692 3.93 2.34 1.15.504 2.12 1.008 2.91 1.08.58 0 1.34-.288 1.16-.864-.18-.684-1.26-2.088-2.27-2.952-1.19-1.008-2.49-1.8-4.29-2.664 3.64.288 6.34.864 8.1 1.584 1.7.72 1.52 1.979 2.38 2.664.86.576 1.76.936 2.7.936.86-.144 1.58-.54 2.02-1.044.21-.54.21-.9-.54-1.908-.8-1.044-2.27-2.412-4.29-4.248 1.69.36 3.46 1.116 5.29 2.124a34.21 34.21 0 015.73 3.816c1.69.252 2.52.036 2.91-.648.26-.792-.39-1.908-1.11-3.492-.79-1.62-1.91-3.456-3.49-5.796 1.47-.216 2.66-.36 3.7-.432.87-.18 1.26-.36 2.16 0 .87.36 2.31 1.476 3.5 2.232 1.18.684 2.34 1.512 3.45 1.8 1.01.144 2.2 0 2.59-.432.29-.432.11-1.404-.54-2.232-.72-.972-1.8-2.052-3.38-3.384-3.53-.468-5.36-.792-5.51-.972-.21-.18 2.52-.288 4.61-.18 2.05.036 5.58.432 7.52.504 1.73-.072 2.85-.144 3.5-.612.61-.576.57-1.584.57-2.34.04-.756.58-1.728-.47-2.232-1.26-.684-4.53-1.044-6.51-1.368-2.02-.324-3.78-.468-5.29-.432-2.09.432-3.21.612-3.5.54-.28-.072.36-.684 1.8-1.152 1.34-.684 3.6-1.512 5.98-2.34 2.3-.864 6.34-1.692 7.78-2.34 1.26-.72.43-1.224.43-1.908.11-.792.54-2.268-.11-2.628-.83-.468-2.12-.288-4.72 0-2.66.18-6.3.684-11.05 1.368 2.88-1.656 5.04-2.88 6.88-4.068 1.76-1.224 2.95-1.98 3.71-2.844.64-.828.54-1.692.36-2.448-.29-1.008-1.12-2.412-1.8-2.952-.76-.612-1.52-.792-2.7-.108-1.34.612-3.03 1.944-5.08 3.996.68-1.044 1.08-1.8 1.33-2.412.11-.684.22-.864-.21-1.368-.47-.576-1.3-1.044-2.49-1.692-3.42 1.944-5.47 2.988-6.15 3.276-.72.18.61-.792 1.9-1.8 1.19-1.08 4.76-3.312 5.3-4.464.43-1.26-1.7-2.088-2.49-2.628-.94-.612-1.83-.756-2.7-.432-.97.252-1.55 1.332-2.7 2.124-1.26.576-2.77 1.08-4.39 1.908-1.76.756-5.04 2.952-5.51 2.844-.54-.18 2.02-2.412 2.81-3.924.72-1.62 1.91-4.212 1.91-5.292-.18-1.188-1.62-1.044-2.23-1.368-.54-.468-.72-1.116-1.37-.972-.83.036-2.38.396-3.39 1.512-1.04 1.044-2.01 2.664-2.91 4.86.18-1.548.32-3.06.43-4.536.11-1.548.79-3.492.25-4.464-.75-1.116-2.84-1.728-4.17-1.692-1.37.072-2.38.396-3.71 2.232-1.37 1.8-2.92 4.608-4.5 8.568V9.157h-2.02c-.5 3.528-.79 5.364-1.01 5.508-.32.072-.18-3.132-.25-4.752-.11-1.692.18-3.78-.11-5.004-.32-1.26-.57-2.268-1.58-2.628-1.26-.468-3.889-.612-4.825 0-.936.54-.252 2.052-.324 3.168-.18.972-.288 2.16-.468 3.168-.756-1.404-1.296-2.628-1.908-3.816-.612-1.296-.864-2.88-1.584-3.384-.936-.612-2.52-1.008-3.348.216-.828 1.26-1.404 3.528-1.584 7.092-.684-2.124-1.26-3.708-2.016-4.896-.756-1.296-1.548-1.8-2.376-2.196-1.08-.396-2.124-.396-3.132 0-1.08.288-2.628.648-2.844 1.908-.252 1.08.72 3.708 1.26 5.256.396 1.512 1.404 3.996 1.224 4.14-.36 0-1.692-2.7-2.592-3.384-.936-.684-1.8.036-2.448-.324-.54-.432-.864-1.296-1.26-1.908-.576-.684-1.152-1.476-2.124-1.8-1.152-.36-3.204-.432-4.068-.216-.9.108-.828.324-.9 1.188-.036.864.108 2.124.576 3.924a16.863 16.863 0 00-3.168-3.42c-1.044-.72-1.332-.936-2.232-.504-1.008.36-2.772 1.62-2.916 2.952-.18 1.26.576 2.808 2.124 4.644-2.196-.756-3.852-1.188-5.4-1.44s-2.7-.54-3.6.108c-.936.504-1.62 1.584-1.908 3.24.9.468 1.944 1.26 3.132 2.232 1.116 1.008 3.564 3.132 3.744 3.6.108.252-.829-.288-2.808-1.764z" fill="#ff0"/><path d="M69.506 18.877c-.576-.792-1.836-2.448-2.808-3.168-.972-.684-1.908-.9-2.808-.647-.936.18-2.484 1.044-2.7 1.908-.36.72-.144 1.692.792 3.06.9 1.404 4.464 4.86 4.716 5.076.072 0-2.844-3.348-3.6-4.644-.756-1.332-.972-2.52-.792-3.168.108-.684 1.044-1.08 1.692-1.188.504-.216.792-.756 1.692-.108.9.576 2.88 2.916 3.6 3.528.541.467.612-.073.216-.649zM80.486 17.653c-.252-.648-.792-2.34-1.332-2.988-.576-.72-1.224-1.08-1.944-1.08-.864 0-2.016.145-2.484.828-.468.54-.576 1.188-.18 2.484.324 1.224 2.16 4.644 2.304 4.824.072.036-1.368-3.132-1.548-4.248-.288-1.188-.18-2.088.18-2.556.216-.504 1.008-.576 1.548-.504.36-.144.792-.324 1.296.288.468.684 1.404 2.736 1.836 3.384.36.432.468.108.324-.432zM99.207 17.473c.108-.9.072-3.06-.108-4.14-.396-1.044-.9-1.8-1.8-2.124-.936-.468-2.664-.54-3.384-.072-.828.396-1.296 1.26-1.404 2.88-.144 1.584.18 6.516.396 6.732.108.108-.144-4.356.216-5.76.252-1.548.792-2.484 1.476-2.952.504-.54 1.476-.144 2.088.072.54.072 1.008 0 1.404.9.216 1.008.396 3.96.54 4.824.072.72.539.324.576-.36zM116.85 26.077c.65-.648 2.19-2.124 2.84-3.168.54-1.044.47-1.944.18-2.7-.57-.972-1.44-1.979-2.45-2.196-.93-.18-1.87.108-3.09 1.26-1.3 1.08-4.47 5.004-4.5 5.256-.07.18 2.91-3.276 4.25-4.14 1.15-.972 2.44-1.296 3.2-1.26.76 0 1.08.828 1.51 1.368.29.432.79.576.4 1.548-.54.9-2.67 3.132-3.06 3.924-.47.648.14.54.72.108zM70.875 46.129c-.504.684-1.296 2.772-1.404 3.924-.108 1.044.18 1.908.864 2.592.684.576 2.052 1.296 3.132 1.188.828-.216 1.62-.864 2.376-2.232.72-1.548 2.196-6.228 2.196-6.408-.072-.144-1.656 3.888-2.376 5.292-.864 1.224-1.836 1.98-2.484 2.268-.828.144-1.476-.432-1.944-.756-.576-.288-1.044-.396-.972-1.296 0-1.044 1.188-3.96 1.332-4.716.072-.792-.396-.612-.72.144zM61.371 25.717c-.9-.144-3.204-.648-4.392-.396-1.224.108-1.908.576-2.448 1.404-.576.756-.936 2.268-.504 3.132.288.756 1.188 1.26 2.844 1.656 1.728.36 6.804.468 7.164.468.072-.108-4.536-.504-6.048-.9-1.548-.432-2.52-1.188-2.916-1.728-.504-.72.072-1.368.324-1.944.18-.54.036-1.08 1.116-1.188 1.044-.108 4.248-.036 5.184.072.72-.144.468-.468-.324-.576zM123.29 32.017c4.43-2.376 7.02-3.708 8.21-4.14.97-.396-.76.756-1.69 1.512-.97.648-2.2 1.368-3.82 2.304 1.98-.252 3.46-.36 4.72-.324 1.15-.036 1.94-.216 2.37.432.36.648.04 2.016 0 3.276-.14 1.188.33 3.24-.68 3.924-1.15.612-4.21-.108-5.98-.216-1.87-.252-4.93-.72-4.71-.828.25-.108 4.39-.072 6.19.108 1.66-.036 3.28.792 4.03.108.65-.864.22-3.42.25-4.356-.1-.972.18-.864-.25-1.044-.5-.324-1.22-.468-2.45-.432-1.33 0-4.42.504-5.4.54-1.08-.108-1.29-.396-.79-.864zM124.98 23.449c.76-.756 2.77-2.628 4.25-2.556 1.37.216 3.85 2.988 3.96 3.312-.04.072-2.41-2.556-3.82-2.448-1.51.036-4.06 2.592-4.75 2.952-.72.108-.47-.54.36-1.26zM102.81 48.109c.36 1.836 1.01 3.168 1.8 4.14.79.9 1.76 1.188 2.91 1.26 1.08.036 2.2-.396 3.5-1.152.1.216.36.504.9.72.39.18 1.11.576 2.01.648.83-.036 2.23-.252 3.39-.648 1.11-.54 2.16-1.296 3.27-2.412.76.036 1.59.036 2.49 0 .9-.18 1.69.18 2.91-.432 1.08-.648 3.96-2.376 3.93-3.384-.15-1.188-4.25-2.88-4.4-2.988-.21.036 2.74 1.728 3.17 2.556.36.612-.25.612-1.01 1.26-.86.576-2.7 1.836-3.85 2.232-1.19.252-2.23.108-3.13-.432-2.88-2.772-4.43-4.032-4.5-3.924-.14.144 1.04 1.656 3.71 4.68-.87.972-1.87 1.44-3.03 1.8-1.26.252-2.98.396-4.06-.108-.98-.612-1.62-1.98-2.24-3.276-.9-1.404-2.05-4.212-2.48-4.68s-.4.72.11 2.016c.43 1.224 1.26 3.06 2.48 5.508-1.11.432-2.05.684-2.95.756-.94-.072-1.66.036-2.45-.648-.86-.756-1.69-1.872-2.48-3.492zM95.714 47.893c.108.18-.288 2.592-.792 3.492-.612.792-1.836 1.044-2.7 1.296-.936.108-2.412.216-2.916-.216-.612-.468-.792-2.268-.684-2.34 0-.18.288 1.62 1.008 1.8.684.18 2.376-.324 3.276-.54.792-.216 1.044-.612 1.584-1.044.432-.576 1.116-2.736 1.224-2.448zM86.031 44.941c-.18.54-1.656 3.888-2.916 4.752-1.368.684-4.896-.432-5.04-.432-.144-.036 2.7.288 3.816 0 .972-.612 1.404-1.944 2.124-2.736.719-.756 2.088-2.16 2.016-1.584zM61.73 40.189c-1.512.648-2.232 1.62-2.016 2.628.144 1.008 1.908 3.132 3.06 3.6 1.08.36 2.232-.18 3.456-1.476.648.792 1.368 1.08 2.16 1.152.72-.072 1.548-.36 2.34-1.152-.9.252-1.476.36-2.124.324-.684-.036-1.044-.216-1.476-.54 2.052-1.512 3.096-2.268 3.276-2.556.036-.36-1.404.468-2.376.972-1.116.504-2.448 1.512-3.456 1.908-.972.252-1.764.216-2.376-.108-.756-.504-1.512-1.44-1.584-2.232-.072-.756.253-1.692 1.116-2.52zM70.623 31.909c-2.268-1.404-3.456-2.88-3.708-4.032-.288-1.296 1.26-2.88 2.16-3.384.756-.576 1.656-.54 2.7.108 1.692-.792 3.024-1.044 4.14-1.152 1.044 0 1.836.144 2.376.828 2.412-1.692 4.248-2.376 5.508-1.908 1.152.396 1.836 4.068 1.908 4.356 0 .144-.576-3.024-1.584-3.276-1.044-.36-2.664.144-4.716 1.368 1.404 2.124 2.16 3.24 2.124 3.492 0 .216-1.62-1.728-2.232-2.232-.792-.612-1.368-1.332-2.124-1.476-.864-.252-1.944-.252-2.7 0-.792.072-1.44.288-1.944.648.684 1.296 1.044 2.016.792 2.016-.36 0-1.26-1.836-2.124-2.016-.972-.36-2.232-.072-2.808.432-.648.468-.936 1.188-.576 2.304.432.972 1.187 2.376 2.808 3.924zM108.42 19.309c-1.04-.504-2.01-.864-2.91-.936-.98-.18-2.06-.252-2.7.216-.8.324-1.26 1.512-1.7 2.196-.46.72-.72 1.26-.9 1.908-1.112-.252-2.084-.36-2.912-.324-.828-.18-1.584-.432-2.124.216-.684.684-1.044 1.872-1.476 3.708.324-1.692 1.044-2.736 2.016-3.276.936-.54 2.268-.468 3.852.216-.828 2.16-1.044 3.096-.792 2.952.288-.288 1.436-2.916 2.336-3.996.76-1.152 1.23-2.448 2.38-2.772 1.08-.36 3.31.216 3.92.756.4.432-.79 1.98-.64 2.016.14-.036 1.29-1.764 1.65-2.124.26-.503.26-.756 0-.756zM109.58 30.649c1 .036 4.96.324 6.04 1.26 1.01.828.36 3.024 0 3.816-.46.72-1.33.612-2.59.648-1.37-.216-5.79-.9-5.51-1.08.29-.216 5.55.468 6.88.108 1.15-.54 1.12-2.052.47-2.736-.79-.684-3.6-1.08-4.54-1.188-1.01-.252-.79.072-.9 0-.25-.252-.9-.9.15-.828zM104.18 37.849c.25 0 1 2.052.32 2.844-.86.72-3.49 1.476-4.825 1.296-1.44-.432-2.844-3.204-2.952-3.312-.144-.108 1.548 2.052 2.592 2.448 1.005.288 2.845-.072 3.705-.54.76-.72.87-2.7 1.16-2.736zM88.875 37.741c0 .18-1.908 1.98-3.492 2.34-1.656.18-6.084-.756-6.084-.864-.144-.252 3.996.252 5.616 0 1.691-.288 3.708-1.655 3.96-1.476zM75.375 32.665c-.18-.036-2.52.72-2.592 1.584-.144.756-.18 2.916 1.548 3.168 1.62.072 7.668-1.8 8.136-2.016.252-.18-4.608.612-5.976.864-1.44.144-1.872.288-2.268 0-.468-.468-.576-1.548-.324-2.124.216-.684 1.548-1.548 1.476-1.476zM87.831 30.217c-.288-.036-.468 1.764.144 2.34.684.54 2.34.972 3.6 1.152 1.08.036 2.268.072 3.024-.432.648-.684 1.08-2.736 1.008-2.844-.144-.036-.792 2.16-1.8 2.556-1.152.144-3.492-.252-4.5-.756-1.044-.54-1.261-2.052-1.476-2.016zM99.207 27.805c.18-.072 2.273-.108 3.493.288 1.19.252 3.56 1.224 3.82 1.8.18.576-2.45 1.476-2.6 1.584-.21-.108 1.52-1.188 1.16-1.692-.54-.612-2.85-1.152-3.86-1.476-1.08-.396-2.265-.468-2.013-.504zM88.623 10.957c-.144-.252-3.996-.612-4.608.324-.612 1.044.576 5.328.792 5.616 0 .072-.684-3.924-.108-4.896.684-1.08 3.887-.972 3.924-1.044zM110.8 9.913c.68.036 2.55.36 3.13.828.43.288.22.54-.22 1.584-.54 1.08-2.77 4.464-2.8 4.464-.11-.252 2.26-4.32 2.12-5.4-.29-1.152-3.02-.864-3.35-1.08-.36-.324.29-.504 1.12-.396zM169.84 134.9c1.01 1.34 1.51 2.6 1.65 3.93.08 1.26.11 2.09-1 3.89-1.3 1.76-4.58 4.06-5.94 6.51-1.37 2.31-2.31 4.93-2.24 7.35-.03 2.26.76 4.35 2.24 6.4-2.38-.72-4.22-1.08-5.91-1.08-1.69-.1-4.14.18-3.89.72.29.51 3.68 1.48 5.3 2.34 1.51.8 2.62 1.62 3.63 2.49-2.45.93-4.43 2.23-5.79 4.03-1.48 1.62-2.63 3.71-2.78 6.41-.28 2.77.87 9.61 1.52 9.83.46-.11.86-6.7 2.16-9.36 1.26-2.67 3.6-5.04 5.76-6.16 2.05-1.15 4.53-1.26 7.05-.47-1.83 2.74-2.91 5.29-3.63 7.81-.8 2.56-.98 4.9-.4 6.88.61 1.8 3.38 4.25 4.03 4.03.47-.32-1.08-4.1-.61-5.94.47-1.98 1.55-3.78 3.39-5.54.57 3.45.5 8.21-.36 14.69-.94 6.37-3.24 17.28-4.68 23.54-1.55 6.12-2.35 7.31-3.89 13.43-1.69 6.12-4.14 15.44-5.55 23.11-1.44 7.52-2.55 13.43-2.52 22.03.04 8.5 1.34 20.13 2.78 28.91 1.22 8.71 3.02 15.7 5.4 23.44 2.37 7.74 5.36 14.9 8.96 22.32l7.16-7.1c-3.88-11.66-6.94-21.81-9.18-30.6-2.27-8.82-3.56-16.02-4.43-22.03-1.04-6.08-1.76-8.03-1.62-14.43 0-6.7.73-16.6 2.02-24.45 1.33-7.81 3.46-13.82 5.8-21.78 2.19-7.92 5.9-18.5 7.67-25.52 1.62-7.13 1.76-12.31 2.37-16.92.54-4.68.79-8.35.9-11.02 1.26 1.59 2.13 3.21 2.88 4.86.61 1.55.94 2.81 1.26 4.75.15 1.88.22 5.62.51 6.52.32.68.97.04 1.65-1.8.61-1.98 2.02-5.76 2.27-9.11.11-3.27-.22-6.84-1.26-10.55 1.76 0 3.53.51 5 1.52 1.44 1 2.88 2.34 4.04 4.53 1.15 2.09 2.16 4.9 3.02 8.28.76-3.2.97-6.01.5-8.42-.57-2.49-1.94-4.32-3.27-6.05-1.41-1.84-5.08-3.74-4.65-4.61.4-1.08 4-1.19 6.91-.72 2.85.61 8.61 4.18 9.94 4.18 1.12-.11-1.19-3.13-2.88-4.65-1.83-1.69-5.18-3.81-7.56-4.86-2.45-1-4.57-1.44-6.66-1.15.76-1.76.76-3.92-.14-6.19-.87-2.34-3.6-5.72-5.15-7.81-1.73-2.13-3.78-2.63-4.65-4.97-.93-2.48-1.18-5.76-.75-9.83l-1.66 2.49-1.76-3.42-.11 4.6c-.4-2.55-.83-3.78-1.15-3.67-.4.07-.69 1.41-1.01 4.14-1.37-2.81-1.98-4.14-2.23-3.99-.25.07.07 1.65.97 4.6-1.62-2.77-2.66-4.06-3.13-4.03-.58.04-.4 1.41.14 4.25-1.29-2.59-2.05-3.85-2.41-3.78-.36.04-.32 1.33.25 4.03-1.72-1.44-2.59-2.19-3.13-2.27-.47-.1-.43.36.25 1.55-.47-.03-.93-.07-1.4-.11z"/><path d="M172.76 138.32a6.554 6.554 0 002.88 1.91c.86.29 1.8.07 2.66-.36.9.79 1.69.97 2.23.83.54-.29.65-2.02 1.15-2.12.47-.11 1.15 1.4 1.77 1.18.5-.36 1.04-1.54 1.62-3.42-.22 1.7.21 3.28.9 4.61.72 1.23 1.94 1.8 3.52 3.53 1.44 1.8 4.22 4.86 5.4 7.24 1.05 2.23 1.19 5.04 1.26 6.62-.1 1.51-.75 2.16-1.26 2.48-.5.18-1.37.11-1.62-1.04-.25-1.22.36-4.07-.39-6.16-1.05-2.23-4.76-6.48-5.15-6.76-.36-.29 2.27 3.27 3.02 4.86.61 1.4.97 2.01 1.23 3.78.21 1.69.39 3.78.39 6.4-.32.65-.83 1.12-1.37 1.55-.64.36-1.36.69-2.16.83.33-1.73.51-3.64.4-5.33-.14-1.8-.57-3.53-1.15-5.33-.83-1.9-1.98-4.35-2.77-5.94-.79-1.69-1.48-4.14-1.51-3.88-.11.1.32 3.09 1 5.07.69 1.98 2.31 4.11 2.92 6.77.43 2.56.43 5.47-.14 8.75-.47.43-1.01.83-1.62 1.19-.76.28-1.8 1.94-2.16.93-.4-1.22.25-6.95.14-7.45-.22-.54-.61 3.31-.9 4.61-.32 1.29-.43 2.52-.75 2.84-.47 0-.98-.57-1.37-1.87-.4-1.37-.65-3.17-.76-5.69-.25-2.55-.29-8.28-.39-9.25-.15-.97-.51 1.51-.51 3.42-.11 1.87-.32 5.15-.11 7.49.08 2.23.33 4.07.76 5.79-.9.33-1.87.4-2.52.22-.76-.25-1.48.47-1.87-1.3-.47-1.94-.83-6.76-.65-9.32.18-2.48 1.3-5.04 1.4-5.58-.07-.65-1.22 0-1.65 1.66-.51 1.62-.97 5.43-1.01 7.7-.18 2.05.86 4.07.5 5.08-.43.93-1.87 1.29-2.52.93-.75-.43-1.26-1.91-1.51-3.17-.39-1.33-.57-2.91-.11-4.75.4-2.05 2.85-5.69 3.03-6.62.18-.9-1.37.21-2.02 1.4-.83 1.15-2.23 3.06-2.41 5.33-.18 2.16.11 4.61 1.15 7.49-1.51-.76-2.59-1.66-3.53-2.85-.86-1.26-1.58-2.77-1.87-4.39-.36-1.73-.86-3.63-.4-5.33.44-1.87 1.55-3.31 2.78-4.86 1.11-1.51 2.88-2.8 3.88-4.03.8-1.33 1.3-2.34 1.66-3.31.32-.97.54-1.76.51-2.38z" fill="green"/><path d="M172.36 135.01l2.02 1.8c-.26-1.94-.08-2.99.25-2.99.39-.07.93.76 1.9 2.63-.21-1.76 0-2.73.51-2.63.54-.03 1.37 1.01 2.63 2.85-.22-1.01-.26-1.51-.11-1.66.14-.18.47.15.97.83.07-.86.29-1.33.65-1.4.29-.08.79.1 1.37.82l.75-2.37.65.93 1.37-.36c-.65 1.55-.97 2.74-1.37 3.57-.32.72-.57 1.15-.76 1.29-.35.08-.79-.75-1.15-.68-.32-.11-.82.22-1.11.58-.47.32-.72 1.47-1.15 1.65-.4.18-.87-.11-1.26-.72-.51.33-1.08.4-1.73.36-.69-.07-1.77-.43-2.27-.68-.65-.36-1.12-.36-1.41-.97-.39-.69-.64-1.59-.75-2.85z" fill="#ff0"/><path d="M165.19 164.03c1.19.68 2.31 1.37 3.64 1.91 1.23.46 2.66 1.15 4.03 1.51 1.26.32 2.56.36 4.03.5 1.41.07 2.96.07 4.65 0-.11 1.37-.69 2.77-1.87 4.36-1.3 1.58-3.89 3.38-5.29 4.86-1.37 1.22-2.38 1.51-3.03 3.09-.79 1.59-1.15 5.44-1.62 6.27-.61.57-1.8-.87-1.76-2.23.03-1.52.57-3.86 1.62-6.05.86-2.23 2.12-4.61 3.78-7.13-1.62-.5-3.24-.86-5.15-.68-1.98.07-4.32.03-6.05 1.29-1.76 1.19-3.27 4.18-4.14 5.91-.83 1.65-.79 3.6-1.01 4.03-.36.32-.93-.72-.9-1.87-.1-1.19 0-3.64.76-5.12.68-1.54 2.45-3.06 3.78-4.14 1.37-1.11 2.66-2.19 4.18-2.84-.29-1.08-1.19-1.94-2.42-2.74-1.4-.9-4.96-1.47-5.29-1.87-.32-.32 1.98-.36 3.42-.11 1.3.11 2.85.51 4.64 1.05zM183.3 168.42a5.77 5.77 0 00.26 3.78c.43 1.26 1.69 2.48 2.66 3.67.79 1.01 1.94 1.05 2.63 2.74.5 1.69.97 5.47 1.26 7.45.29 1.91.36 4.18.75 3.89.36-.58 1.19-4.18 1.52-6.48.25-2.38.25-4.86 0-7.02-.33-2.16-.87-4-1.77-5.65 1.62-.54 3.1-.8 4.29-.62 1.08.08 1.54.54 2.77 1.55 1.22 1.01 3.24 3.03 4.39 4.5.94 1.37 1.66 4.03 1.76 3.67.11-.54-.21-4.42-1.11-6.26-.97-1.98-3.46-3.56-4.68-4.75-1.26-1.23-3.06-1.48-2.88-2.13.07-.75 1.47-1.8 3.38-2.01 1.87-.33 5.01-.25 7.31.36 2.16.61 4.28 3.06 5.4 3.31.97.18 1.15-1.04.4-2.02-1.05-1.15-4.15-2.91-5.8-3.92-1.58-1.04-2.56-1.4-3.89-1.76-1.51-.4-3.06-.47-4.79-.36-.82.9-1.58 1.4-2.12 1.9-.61.33-.76.15-1.26.58-.54.32-1.08 1.3-1.91 1.8-1.04.43-2.45.9-3.38 1.4-.98.4-1.19.83-2.02 1.3-.9.4-1.91.76-3.17 1.08z" fill="green"/><path d="M181.79 173.89c-.9.9-1.87 1.77-2.77 2.59-.97.76-2.02 1.52-2.99 2.13.47 3.85.47 8.28 0 13.28-.47 4.97-1.44 9.47-2.91 16.56-1.7 7.13-4.79 17.32-6.81 25.71-2.16 8.2-4.1 16.27-5.4 23.22-1.33 6.73-2.09 11.73-2.27 17.64-.25 5.9.15 11.59.9 17.75.65 5.97 1.7 11.77 3.14 18.35 1.4 6.48 3.16 14.48 5.29 20.63 2.05 6.02 4.14 11.27 6.66 15.63l5.65-5.11c-2.88-8.32-5.22-15.99-7.42-23.55-2.23-7.52-4.21-14.61-5.54-21.42-1.41-6.98-2.38-12.27-2.49-19.62-.18-7.52.69-17.42 1.62-24.26.94-6.73 1.55-9.33 3.64-16.13 1.94-7.13 6.16-18.51 8.21-25.38 1.84-6.81 2.63-9.04 3.49-15.05.86-6.08 1.37-12.92 1.66-20.92-.54-.68-1.08-1.36-1.66-2.05z" fill="#5c6b2e"/><path d="M170.92 342.59c-.86-4.47-1.58-8.25-1.77-11.34-.28-3.17-.82-6.3.19-7.45 1-1.26 2.66-1.26 5.5 0-1.36-.94-2.95-2.45-4.89-4.4-2.09-2.12-6.12-5.76-6.7-7.45-.54-1.73.61-2.63 3.46-2.7-2.34-1.55-4.14-3.45-5.69-5.72-1.66-2.31-4.43-6.41-3.46-8.03 1.01-1.73 4.14-2.27 9.54-1.91-3.96-1.62-6.62-3.27-8.13-4.97-1.48-1.8-1.95-4.14-1.01-5.36.76-1.19 2.77-2.02 5.9-2.09-.18-3.56-2.08-7.02-6.12-10.9-4.03-3.82-9.93-7.89-17.85-12.07-2.77 1.59-4.83 3.64-6.3 6.3-1.51 2.74-2.59 6.02-2.67 9.4-.18 3.17.36 6.3 1.62 9.54 2.45-2.2 4.5-3.02 6.3-2.48s3.93 2.48 4.29 5.54c.29 2.99-.79 7.02-2.85 12.24 2.09-.29 3.78.04 5.08.97 1.22.79 2.09 1.66 2.45 4.4.32 2.73.07 6.58-.61 11.84 2.12-1.58 3.63-2.16 4.68-1.73.86.47.75 2.41 1.22 4.03.4 1.48.79 3.03 1.62 4.79.83 1.66 1.91 2.84 3.24 5.36 1.22 2.38 2.38 5.44 3.85 9.18-4.97-5.9-8.75-10.8-11.77-14.54-3.06-3.89-5.04-5.94-6.08-8.24-1.05-2.34-1.05-4.14 0-5.55-2.49-.07-4.54-.83-6.3-2.27-1.84-1.54-3.78-4.78-4.29-6.51-.65-1.84.04-2.88 1.23-3.82 1.15-.93 3.27-1.51 6.08-1.73-3.2-.39-6.05-.9-8.53-1.9-2.56-1.08-5.51-2.63-6.52-3.82-1.08-1.22-.54-2.09.22-3.28.61-1.29 1.83-2.59 3.67-4.17-2.84-1.37-4.68-2.99-5.51-5.01-.93-2.05-.86-4.35.22-7.05-5.44-.4-9.18-1.01-11.38-2.13-2.27-1.26-2.37-2.95-1.83-4.39.36-1.4 1.65-3.42 4.86-3.81 3.31-.51 8.06.07 14.65 1.33-2.56-3.49-5.22-6.12-8.14-8.17-3.02-2.13-7.74-2.49-9.14-4-1.41-1.66-1.08-3.31.83-5.36-4.5-1.34-6.95-2.56-7.74-3.82-.83-1.22.39-2.48 3.27-3.64-7.95-.93-12.778-2.48-14.866-4.35-2.052-2.02.036-6.81 2.664-7.27 2.556-.58 6.662.86 12.602 4.17.72-2.62-.43-5.79-3.46-9.89-3.17-4.22-10.222-9.83-14.65-14.33-4.356-4.54-8.1-7.31-11.376-12.06-3.384-4.83-6.408-10.05-8.928-16.24.396 7.13.072 13.11-.828 18.33-1.044 5.14-3.636 8.24-4.86 12.63-1.26 4.36-2.124 8.75-2.448 13.18-.36 4.25-.828 7.38.396 12.45 1.188 5.12 3.492 10.91 6.912 17.79.504-5.91 1.476-9.65 3.06-11.67 1.584-2.08 5.184-2.48 6.084-.21.756 2.37.288 6.91-1.404 14.14 1.62.22 2.628.9 3.024 2.45.324 1.48.108 3.53-.792 6.3 1.476.54 2.376 1.66 2.844 3.64.324 1.91-.864 4.57-.216 7.85.684 3.2 1.944 6.91 4.068 11.27 1.188-4.68 2.412-8.07 3.672-10.3 1.26-2.27 2.34-3.13 3.636-2.88 1.764-.54 2.736.04 3.06 1.73.252 1.58-.864 5.94-1.404 8.21-.612 2.3-1.368 3.99-2.268 5.36 1.296.83 1.908 1.91 1.836 3.24-.072 1.37-.864 2.77-2.232 4.61 1.692.86 2.916 2.37 3.672 4.39.684 2.05 1.044 4.61.792 7.81 2.09-3.89 3.89-6.51 5.69-8.03 1.76-1.58 3.74-1.94 4.68-.93.83 1.04.97 3.35.43 7.05 2.2 0 3.56.98 4.25 2.52.61 1.59-.54 4.54-.4 7.06 0 2.41.22 5.54 1.23 7.6 1 2.05 2.7 3.38 5.07 4.39-.47-4.65-.25-7.78.79-9.94 1.01-2.19 4-3.45 5.08-2.66.76.86-.07 4.75.43 7.63.43 2.77.76 6.19 2.63 9 1.87 2.74 4.79 5.11 8.75 7.27 0-4.03.61-6.26 1.83-6.69 1.16-.44 3.06 2.05 5.3 3.99 2.16 1.84 4.57 4.03 7.52 6.88-4.21.72-7.56.86-10.19.57-2.55-.46-3.78-2.12-5.47-2.48-1.87-.36-4.46 1.08-5.69.58-1.29-.62-2.09-1.95-2.23-4-2.95 1.15-5.15 1.44-6.73.58-1.59-.9-2.41-2.7-2.63-5.55-2.3-1.26-4.18-1.47-5.9-.79-1.77.72-3.14 4.68-4.25 4.79-1.23-.18-2.99-3.28-2.67-4.97.36-1.66 1.88-3.2 4.68-4.79-3.27-.72-6.04-1.29-8.31-1.33-2.414-.22-3.746.9-5.51.58-1.836-.44-4.896-1.62-5.292-2.88-.504-1.41 1.008-3.64 2.448-4.76 1.404-1.15 3.168-1.8 5.688-1.94-4.104-.61-6.912-1.37-8.712-2.27-1.764-.93-2.376-1.98-1.836-3.27-1.944 1.26-3.636 2.19-5.076 2.52-1.584.28-3.384.57-3.888-.4-.504-1.11-.756-4.35.612-5.54 1.296-1.19 3.996-1.66 6.732-1.55 2.628 0 5.4.47 8.712 1.55-3.456-.94-6.048-2.34-8.316-4.22-2.232-1.94-3.816-4.21-4.896-7.09-3.132 1.48-5.724 1.8-7.92 1.37-2.196-.54-3.888-2.02-5.076-4.43-.432 1.08-1.332 1.55-2.844 1.55-1.584-.11-5.904-.65-6.3-1.91-.432-1.47 1.692-4.75 3.456-5.94 1.548-1.19 3.6-1.08 6.3-.93 2.7.18 5.976.61 9.972 1.69-3.6-2.56-6.552-4.75-9.144-6.45-2.664-1.72-5.04-2.55-6.3-4.03-1.296-1.51-1.656-3.42-1.224-5.33-.648 1.3-2.34 2.13-5.076 2.49-2.808.21-9.36.72-11.592-.58-2.304-1.37-3.348-5.69-2.016-7.27 1.224-1.76 6.156-2.59 9.936-2.48 3.816.07 7.884 1.15 12.6 3.24-2.268-5.69-6.336-10.23-12.204-13.75-6.012-3.61-16.416-5.44-23.148-7.46-6.768-2.12-11.556-3.52-16.884-5.18-5.364-1.8-10.44-3.39-15.228-5.15 3.564 3.93 5.976 8.5 7.524 14.15 1.368 5.54 1.008 13.35 1.404 19.11.324 5.55-.72 10.26 1.044 14.55 1.728 4.32 4.788 7.92 9.324 11.09.432-6.52 1.656-10.48 3.672-11.88 2.052-1.48 6.66.39 8.136 3.27 1.26 2.88-.108 9.54-.216 13.75-.108 4-1.656 7.2-.612 10.73.936 3.53 2.988 6.99 6.3 10.52.072-2.06.756-3.64 2.052-4.61 1.332-1.08 4.428-2.38 5.688-1.51 1.008.79.756 3.52 1.188 6.12.396 2.41.036 5.9 1.44 8.96 1.368 3.1 3.672 6.08 6.912 9.4-.684-3.06-.684-5.62 0-7.67.612-2.16 1.944-4.36 3.852-4.79 1.872-.5 5.976.54 7.308 2.3 1.188 1.73-.36 5.04.216 7.85.576 2.74 1.332 6.05 3.24 8.39 1.872 2.23 4.32 3.78 7.74 4.79-1.62-3.92-2.232-6.66-1.836-8.6.36-1.91 2.268-2.92 4.068-2.89 1.764-.03 4.14.76 6.3 2.53 2.016 1.69 4.248 4.82 6.3 7.45 2.016 2.45 3.996 5.65 6.084 7.27 2.088 1.48 3.998 2.16 6.118 1.91-1.11-2.09-1.65-3.82-1.62-5.19-.14-1.55.4-3.1 1.62-3.24 1.23-.11 4.29 1.33 5.87 2.67 1.44 1.26 2.66 2.91 3.28 4.96.93-.72 2.26-1.08 3.85-.93 1.62 0 4.03 1.8 5.69 1.51 1.47-.36 2.52-3.17 3.67-3.42.97-.32 1.4 1.87 2.84 1.73 1.41-.4 3.57-2.92 6.09-3.28 2.52-.32 5.4.07 8.92 1.34-.82 3.16-1.83 4.89-2.62 5.18-.83.29-1.84-.86-2.63-3.46-2.31 1.3-4.18 3.1-5.91 5.55-1.72 2.48-3.02 7.23-4.28 9-1.44 1.62-3.2 2.05-3.64.75-.46-1.51.04-4.53 1.23-9.36-2.2 1.01-4.39 2.85-6.73 5.51-2.42 2.59-5.69 7.45-7.31 10.3-1.62 2.81-.79 5.04-2.23 6.69-1.48 1.48-5.73 3.5-6.52 2.7-.9-.9.83-5.4 1.44-7.66.54-2.38 1.26-4.32 2.02-6.12-4.32 2.95-7.456 6.04-9.544 9.57-2.088 3.46-1.872 7.17-2.844 11.27-1.044 4.03-1.8 9.04-3.24 12.64-1.476 3.45-3.42 6.19-5.688 8.2 4.644-2.98 9.54-4.89 14.832-6.12 5.224-1.18 11.844-.25 16.664-.93 4.83-.79 8.68-2.05 11.99-3.64 3.21-1.62 5.47-3.71 7.09-6.12-4.86.58-7.92.33-9.32-.75-1.55-1.16-1.48-4.9.79-5.94 2.38-1.08 8.79-.36 12.82-.76 3.85-.58 7.56-1.08 10.15-2.48 2.45-1.55 3.89-3.53 4.46-6.34-4.39.72-7.34.65-8.71-.36-1.51-1.08-1.73-4.57.18-5.76 1.98-1.3 7.85-.58 11.38-1.73 3.45-1.15 6.26-2.91 8.96-5.15-3.63.44-6.01.26-7.13-.39-1.18-.87-.82-2.88.4-3.82 1.19-.97 4.61-.5 6.52-1.51 1.83-1.01 3.16-2.59 4.28-4.61 1.15-1.94 1.98-3.92 2.2-5.79.28-2.06-.54-4.22-.69-5.66-.29-1.44-.61-2.27-.97-2.63z"/><path d="M172.57 356.12c2.78 1.73 4.9 2.78 6.92 3.14 1.87.25 2.44-1.34 4.5-1.15 2.01.14 5.5 2.37 7.7 2.12 2.16-.4 4.1-4.1 5.29-4.03 1.08.11 1.37 1.44 1.01 4.39 4.25-1.15 7.24-2.66 9.36-4.39 2.02-1.84 1.62-5.55 2.84-6.12 1.12-.58 3.46 1.26 4.25 2.88.69 1.55.76 3.71.22 6.48 2.88-1.12 5.18-2.88 6.91-5.73 1.62-2.84 1.48-8.53 3.46-11.09 1.9-2.66 7.02-4.82 8.53-4.39 1.47.4.68 4.47.39 7.06-.35 2.55-1.22 5.25-2.44 8.24 3.96-1.65 6.62-3.78 8.53-6.51 1.69-2.96.83-7.56 2.27-9.94 1.44-2.27 3.49-3.53 6.3-3.64-1.84-2.41-2.63-5.07-2.23-7.84.39-2.92 2.3-7.17 4.46-9 2.09-1.95 6.12-3.14 7.92-1.91 1.58 1.26 2.7 6.33 2.23 9.39-.57 2.92-2.12 5.55-5.07 8.03 2.3.65 4.53.04 6.69-1.55 2.13-1.8 4.86-5.76 6.12-8.38 1.12-2.7-.21-5.58 1.01-7.28 1.15-1.69 3.1-2.8 5.98-3.06-1.55-3.52-2.34-6.3-2.52-8.74-.18-2.42.5-4.83 1.62-5.73 1.04-1.01 2.59-1.08 4.64-.21-.94-4.97-.61-8.43.83-10.91 1.44-2.49 6.01-4.39 7.74-3.64 1.76.72 3.2 4.11 2.23 8.07-1.23 3.88-4.18 8.78-9.15 15.08 3.64.65 7.24-.11 10.95-2.66 3.67-2.67 7.45-6.95 11.19-12.42 3.57-5.58 6.09-14.51 10.77-20.27s10.22-10.37 17.06-13.97c-4.32-2.2-8.75-3.53-13.82-4.4-5.11-.86-10.8-.68-16.24-.57-5.54.03-11.3-.11-16.45.94-5.33 1.04-10.51 2.77-14.44 5.18-3.96 2.31-6.73 4.97-8.74 8.39 3.56-.94 6.22-.86 8.13.22 1.8.97 4.25 4.6 3.06 5.9-1.26 1.15-6.05 1.01-10.18 1.37-4.29.21-10.59-1.08-15.02.54-4.53 1.69-9.32 6.44-11.59 9.39-2.38 2.77-2.91 5.26-2.05 7.45 5.76-1.83 9.75-2.3 11.99-1.54 2.16.72 2.7 4.75 1.22 6.12-1.62 1.15-7.27.46-10.15 1.54-2.81 1.08-4.39 3.71-6.7 4.97-2.55 1.12-5.94.97-7.92 1.91-2.01.86-2.98 2.02-3.88 3.46-.98 1.33-1.59 2.91-1.84 4.75 3.24-1.73 5.8-2.56 7.52-2.09 1.73.36 3.46 3.17 2.85 4.39-.83 1.12-4.76 1.19-6.92 2.31-2.23 1.08-4.78 2.62-5.86 3.81-1.08 1.01-1.23 1.73-.44 2.31 1.55-.8 2.7-.51 3.46.57.69 1.15 1.19 4.72.83 6.12-.54 1.12-1.51 1.62-3.46 1.51-2.09-.18-5.4-2.16-8.13-1.9-2.7.18-5.3 1.26-7.92 3.24 4.24.46 6.91 1.18 8.13 2.3 1.08 1.01.07 3.42-1.22 4.03-1.52.54-5.44-1.37-6.91-.57-1.48.68-.4 4.21-1.62 5.14-1.23.76-4.14-.36-5.69.4-1.73.76-2.7 3.71-4.28 4.39-1.62.61-3.5.47-5.48-.57 2.38-.51 3.82-1.59 4.47-3.24.5-1.84-1.41-5.8-1.01-6.88.36-1.04 2.23 1.15 3.24.36.83-1.01 1.29-5.29 2.23-5.9.9-.61 1.87.21 3.06 2.48 1.19-3.06 1.66-6.19 1.4-9.39-.47-3.46-3.49-8-3.24-10.12.18-2.02 3.32-2.45 4.68-2.12 1.26.14 2.34 1.47 3.24 3.45.87 1.91 1.55 4.65 2.06 8.21 1.11-5.54 1.73-10.04 1.83-13.36.11-3.38-1.47-4.5-1.44-6.69-.1-2.38-.28-5.94.83-7.09.94-1.23 3.96-1.37 5.47 0 1.59 1.22 2.63 3.78 3.68 7.66 1.08-4.1 1.62-7.56 1.22-10.9-.4-3.32-3.56-6.2-3.28-8.79.18-2.7 2.99-6.62 4.68-6.91 1.59-.36 4.47 1.94 5.3 4.97.79 2.99.54 7.05-.62 12.63 3.17-1.69 5.33-3.49 6.48-5.94.98-2.44-.57-6.91.22-8.38.86-1.59 2.45-1.8 4.9-.8-.72-1.97-1.23-3.99-1.66-5.9-.43-1.98-1.15-4.68-.79-5.76.32-1.19 1.01-1.4 2.45-.94-1.08-2.01-1.7-4.1-1.84-6.12-.25-2.19-.32-4.82.61-6.33.94-1.55 3.06-3.28 4.86-2.85 1.73.33 4.47 1.98 5.29 4.97.69 3.03.4 7.17-1 12.82 3.06-2.88 5.54-5.69 7.3-8.43 1.66-2.73 2.74-5.04 3.24-8.02.4-3.21-.9-8.46 0-10.34.9-1.83 4.5.83 5.51-.75.9-1.69-.39-6.16 0-9.36.29-3.46.51-8.07 2.02-10.51 1.51-2.45 4.86-3.89 6.73-4.04 1.69-.28 2.95.22 3.64 2.88.68 2.63.61 9.36.61 13-.04 3.53-.36 6.26-.83 8.21 2.52-1.66 5.15-5.33 7.74-10.87 2.56-5.8 6.12-15.16 7.92-22.68 1.62-7.56 1.12-16.46 2.66-21.96 1.59-5.44 5.48-7.74 7.1-11.09 1.54-3.57 2.41-6.84 2.44-9.97-6.8.03-13.17 1.44-19.51 4.21-6.44 2.77-12.53 9.54-18.11 12.24-5.54 2.55-10.44 1.87-14.83 3.24-4.46 1.22-7.34 1.29-11.55 4.39-4.25 3.06-8.86 7.67-13.83 13.97 4.65-.9 8.43-.61 11.77.57 3.28 1.19 7.35 4.4 7.74 6.7.11 2.16-3.67 5.58-5.9 6.52-2.16.82-5.29-1.77-6.91-.98-1.77.69-1.05 4.94-3.24 5.55-2.38.54-7.42-2.38-9.97-2.09-2.45.22-3.28 1.73-4.86 3.42-1.8 1.62-3.5 4.86-5.51 6.52-2.09 1.47-5.15 1.76-6.7 3.24-1.55 1.51-2.63 3.49-2.84 5.94 6.98-1.34 11.95-1.73 15.05-1.34 2.98.4 3.09 2.31 3.24 3.64.07 1.26-.83 3.24-2.85 4-2.12.61-5.33.61-9.76 0 .65 1.47.58 2.62-.21 3.88-.94 1.16-2.74 1.16-4.86 3.07-2.23 1.76-6.27 4.85-7.92 7.63-1.66 2.73-2.27 5.61-1.84 8.78 2.38-3.35 4.61-5.07 6.7-5.33 2.16-.25 4.89 2.09 5.69 3.82.43 1.62-.44 4.25-2.02 5.94-1.62 1.55-4.75 2.09-6.91 3.42-2.23 1.22-4.97 1.98-6.12 4.21-1.23 2.27-1.52 5.18-1.01 9.18 3.02-1.76 5.33-2.34 6.91-2.12 1.62.32 2.3 2.23 2.45 3.63-.07 1.15-.94 1.44-2.45 3.64-1.55 2.12-3.67 5.26-6.52 9.4 2.38 1.69 3.5 3.31 3.5 4.86-.08 1.47-3.64 2.55-3.89 4.21-.33 1.55 1.98 3.71 2.05 5.36-.07 1.51-1.73 2.52-2.05 4-.29 1.33.36 2.7 0 4.39-.61 1.66-2.74 3.78-3.03 5.54-.28 1.52 1.26 2.7 1.19 4.4-.18 1.8-1.08 3.71-2.41 6.15-1.37 1.23-2.27 2.74-2.7 4.4-.5 1.76-.36 4.06 0 5.5.33 1.22.9 1.76 1.87 1.76z"/><path d="M178.62 344.53c.87-7.09 2.09-14.07 3.96-21.35 1.8-7.34 5.11-18.5 6.88-21.96 1.62-3.42 1.51-.75 3.13 1.19 1.59 1.84 5.47 8.93 6.23 9.61.5.51-1.3-3.74-2.48-6.08-1.23-2.3-2.56-4.97-4.4-7.85-.07-1.8.47-3.89 1.48-6.26 1.01-2.45 2.48-5.15 4.57-8.25.9.72 2.13 1.95 3.53 3.53 1.37 1.48 4.79 6.09 5 5.91.18-.15-2.8-5.08-3.96-6.88-1.26-1.91-2.48-3.46-3.52-4.5 2.08-4.28 4.1-7.99 6.04-10.98 1.95-3.2 3.75-6.26 5.4-7.24 1.52-.97 2.56.15 3.96 1.55 1.26 1.33 3.03 4.11 4.18 6.66 1.08 2.38 1.98 5.62 2.7 8.21.68 2.59 1.26 7.13 1.44 7.24.11-.11 0-4.25-.61-7.42-.69-3.28-1.69-8.28-3.31-11.56-1.66-3.27-3.82-6.04-6.48-8.17 2.05-3.17 4.53-6.84 7.3-11.01 2.78-4.36 6.59-10.88 9.36-14.26 2.7-3.46 5.37-5.44 6.88-6.08 1.33-.8.9 1.04 1.48 1.9.46.87 1.62.87 1.65 3.35-.11 2.31-1.98 10.37-1.87 10.98.07.47 1.48-5.61 2.27-7.27.57-1.73.97-2.59 1.47-2.16.47.54 1.01 2.7 1.48 5.11.29 2.31.54 5.37.61 8.64 0 3.13-.39 9.65-.21 10.12.21.29.61-5.04 1.04-7.78.18-2.91.65-6.23.43-8.82-.21-2.55-.83-4.35-1.69-6.66-1.01-2.52-3.1-5.72-3.74-7.67-.72-1.9-1.55-1.44 0-3.74 1.4-2.48 6.01-7.31 8.96-10.58 2.88-3.46 5.98-7.28 8.75-9.36 2.7-2.13 5.4-3.24 7.7-2.96 2.23.18 4.68 1.41 5.83 4.5 1.05 3.06.51 9.94.62 14.12-.04 4.1-.29 10.69-.18 10.58.18-.25.72-8.1 1.04-11.74.18-3.74-.47-8.53.4-10.18.68-1.62 3.49-.58 4.39.36.86.82.83 4.75 1.01 4.82.14-.14.5-3.6-.18-5.11-.9-1.48-2.67-2.41-4.61-3.93-2.05-1.69-6.05-4.17-7.27-5.65-1.26-1.58-.94-1.73 0-3.35.86-1.76 2.99-5.65 5.4-6.66 2.34-1.08 8.06.72 8.56.4.26-.5-6.51-1.04-6.26-2.74.25-1.87 5.51-4.68 8.14-7.45 2.52-2.81 8.06-8.96 7.48-9.03-.68-.08-6.4 4.06-11.05 8.24-4.79 4.03-12.99 13.21-16.85 15.88-3.88 2.48-3.7.03-6.26-.4-2.7-.58-5.87-2.05-9.36-2.34-3.6-.25-10.08.47-11.66.79-1.62.29.1.54 1.87.76 1.65-.07 5.9-.47 8.31-.36 2.31.18 5.87.68 5.84 1.37-.26.46-4.32 1.08-6.23 2.12-1.87 1.04-2.99 3.02-4.61 4.14-1.66.94-5.33 1.76-5.18 1.94.03.15 3.78-.36 5.4-.97 1.54-.79 1.94-2.16 3.52-3.13 1.44-.97 3.32-1.94 5.22-2.34 1.8-.47 4.4-.54 5.84-.22 1.33.22 2.3.94 2.08 2.16-.36 1.23-1.58 2.45-3.96 5.48-2.55 3.06-6.94 8.85-10.4 12.81-3.46 3.85-6.7 7.2-10.01 10.19-4.61 1.15-9.21 2.2-13.97 3.67-4.78 1.33-13.68 4-14.58 4.5-1 .36 4.68-.83 8.75-1.76 4.03-1.12 12.35-3.35 15.23-3.93 2.66-.57 1.4-.03 1.22.8-.18.68-.79 1.36-2.26 3.7-1.62 2.31-4.68 6.73-7.1 10.23-2.44 3.42-4.89 6.8-7.48 10.29-3.21.72-6.34 1.52-9.4 2.38-3.17.83-8.53 2.34-9.14 2.74-.62.32 2.8-.15 5.39-.58 2.45-.5 7.46-2.41 9.18-2.38 1.59-.18 1.37.54.62 2.16-.9 1.62-3.21 3.71-5.4 7.64-2.31 3.96-5.01 9.36-7.71 15.51-2.73 5.98-6.19 15.88-8.13 20.38-1.95 4.35-3.17 6.37-3.53 6.05-.5-.65-1.04-1.19-1.48-1.77-.43-.57-.9-1.04-1.26-1.55 2.63-3.13 4.39-5.83 5.83-8.24 1.37-2.52 2.02-4.54 2.09-6.05-.21-1.58-1.11-2.7-2.7-2.95-1.65-.32-3.74.18-6.66 1.37-.75-1.84-.57-3.49.4-5.11.97-1.73 3.06-3.14 5.44-4.5 2.19-1.41 6.48-1.84 8.13-3.53 1.55-1.87 1.73-4.75 1.66-6.84-.18-2.16-1.23-4.25-2.31-5.29-1.15-1.05-2.73-.8-4.17-.62-1.48.15-2.95.72-4.57 1.59.39-1.84 1.36-3.49 2.91-5.11 1.51-1.8 4.18-3.32 6.05-4.68 1.76-1.41 3.56-2.2 4.57-3.35.87-1.15 1.19-2.38.83-3.53 3.1.79 5.62.86 7.7.22 2.06-.76 3.96-2.52 4.61-4.32.47-1.91.18-5.37-1.26-6.48-1.55-1.05-4.64-.69-7.49-.18-2.84.32-6.08 1.04-9.57 2.16.64-2.09 1.55-3.53 3.09-4.72 1.44-1.22 3.6-.5 5.66-2.16 2.01-1.73 4.53-6.16 6.44-7.85 1.76-1.76 2.23-2.55 4.17-2.52 1.91-.03 5.01 2.09 7.06 2.34 1.91.18 3.49-.14 4.61-.97.97-1.04.65-3.6 1.65-4.32 1.01-.68 2.45.47 4.18.4 1.62-.22 3.74.03 5.4-1.19 1.58-1.33 3.6-4.72 3.96-6.41.25-1.69-.65-2.09-2.3-3.53-1.88-1.62-5.55-4.35-8.11-5.29-2.55-.9-5.04-1.01-7.3-.18 2.73-3.74 5.32-6.8 7.92-9.04 2.48-2.26 4.6-3.63 7.48-4.68 2.88-1.15 6.52-1.94 9.8-2.37 3.16-.61 5.79.36 9.39-.97 3.46-1.44 8.1-4.9 11.45-7.06 3.17-2.27 4.93-4.57 7.92-6.08 2.92-1.7 6.55-2.6 9.79-3.39 3.17-.79 6.01-1.29 8.97-1.37.1 3.14-.47 6.02-1.88 8.64-1.54 2.6-5 3.78-6.47 7.06-1.41 3.17-1.73 7.85-2.09 11.95-.51 3.93.21 7.85-.61 12.35-1.08 4.57-2.78 10.01-4.79 14.9-2.05 4.76-5.51 11.45-6.88 13.72-1.4 1.98-.83.97-1.04-.79-.25-1.8-.11-6.55-.4-9.4-.36-2.84-.5-6.37-1.69-7.67-1.4-1.4-3.89-1.54-6.05-.57-2.23.79-5.33 3.06-6.66 5.69-1.29 2.48-.97 6.66-1.26 9.61-.47 2.91-.11 6.69-1.01 8.03-.93 1.18-3.74-1.7-4.39-.58-.68 1.04.43 4.57.43 7.24-.14 2.59.22 5.61-.86 8.64-1.15 2.91-3.1 5.97-5.83 9.18.03-4.07-.15-7.2-.83-9.4-.72-2.2-1.48-2.95-3.1-3.92-1.76-1.19-4.97-2.81-6.69-2.34-1.8.5-3.17 2.59-3.53 5.29-.4 2.7.15 6.05 1.48 10.58-1.41-.72-2.06-.11-2.09 1.98-.04 2.02.54 5.37 1.87 10.19-1.69-.36-2.63.22-3.35 1.58-.65 1.41-.43 4.47-.61 6.66-.22 2.16-.61 4.43-1.04 5.69-.65 1.05-1.44 1.3-2.52.76.21-2.74.28-5.22.21-7.17-.14-1.9.04-3.67-.83-4.89-.93-1.44-3.13-3.06-4.35-3.6-1.23-.72-1.94-.76-3.13.18-1.41 1.04-4.11 3.71-4.61 5.9-.4 2.09 1.26 5.15 1.91 6.84.57 1.62 1.15 1.51 1.44 3.13.14 1.59 0 3.64-.44 6.3-1.29-2.62-2.7-4.06-4.35-4.71-1.66-.61-4.43.11-5.4 1.19-1.01.97-.97 2.88-.86 4.89 0 1.84.61 4.07.86 6.84.22 2.85.14 6.05.18 10.01-.72-2.77-1.8-4.57-3.1-5.69-1.4-.97-3.56-1.04-4.82-.79-1.48 0-2.3.22-2.88 1.19-.47 1.01-.29 2.7 0 4.5.04 1.65.68 3.78.83 5.69.14 1.8.47 4.21 0 5.29-.65.93-2.6-.72-3.35.57-.83 1.26-.65 5.98-1.26 7.06-.72 1.01-2.09-1.44-2.7-.97-.65.28-1.26 1.55-1.44 3.24-.32 1.54.76 4.97-.22 6.66-1.18 1.65-4.82 3.02-6.05 3.52-1.18.4-1.65-.39-1.26-.97.33-.61 1.45-1.58 3.35-2.77z" fill="green"/><path d="M175.92 332.9c1.52-2.23 2.6-3.92 3.1-5.5.4-1.59-.25-2.6 0-3.71.22-1.26 1.48-1.87 1.69-3.35.07-1.51-1.58-2.92-.65-5.47.94-2.67 3.03-5.87 6.27-10.01a86.679 86.679 0 00-4.39 13.32c-1.34 4.93-2.67 12.92-3.32 16.49-.68 3.53-1.01 5.04-.82 4.68-.69-1.77-1.23-2.99-1.48-4.11-.33-1.08-.51-1.9-.4-2.34z" fill="#fff"/><path d="M188.81 298.2c1.01-3.1 4.75-12.53 7.74-18.43 2.88-6.05 5.58-11.52 9.36-17.25 3.6-5.83 8.97-12.42 12.49-17.24 3.46-4.97 4.5-7.45 8.14-11.74 3.6-4.28 8.39-8.67 13.1-13.71 4.5-5.33 9.65-11.92 14.19-16.85 4.5-4.9 11.52-11.74 12.7-12.17 1.01-.36-3.74 6.01-6.47 9.4-2.88 3.17-7.46 6.37-10.41 9.61-2.95 3.1-3.96 5.33-7.31 9.22-3.56 3.96-9.03 8.78-13.1 13.93-4.07 5.04-7.13 10.08-10.84 15.66-3.78 5.29-7.59 10.26-11.44 16.45-3.96 6.16-9 14.94-11.67 20.52-2.73 5.51-3.56 9.94-4.57 12.17-1.19 2.05-2.84 3.35-1.91.43z" fill="#5c6b2e"/><path d="M181.11 356.95c3.2-.21 6.44-.93 10-2.16 3.46-1.44 7.74-3.6 11.06-5.51 3.2-1.8 5.72-3.74 8.53-5.68 2.84-2.13 6.48-6.16 8.14-6.84 1.43-.72.79.82.82 2.55-.07 1.73-.57 5.76-.82 7.63-.4 1.77-.8 3.14-.65 3.14.18-.22 1.11-1.91 1.69-3.71.36-1.87.83-4.79 1.01-6.66.14-1.98.21-3.31.21-4.54 1.73-1.8 3.82-3.81 6.27-6.44 2.41-2.66 5.18-5.54 8.31-9.04.94 2.31 1.52 5.19 1.88 8.64.28 3.42-.36 11.02 0 11.96.28.64 1.36-4.29 1.69-6.88.18-2.66-.07-5.72-.22-8.21-.25-2.55-1.04-4.71-.83-6.48.18-1.69.76-2.37 1.87-3.7 1.08-1.55 2.56-2.63 4.58-4.9 1.98-2.38 5.11-6.23 7.3-8.64 2.06-2.45 3.21-4.36 5.4-6.16 2.09-1.98 6.16-5.58 7.49-5.4 1.19.18.76 4.22.22 6.27-.65 1.91-2.2 3.78-3.53 5.47-1.37 1.58-3.46 2.95-4.18 4.54-.68 1.51-.61 5.04-.21 4.89.14-.25.64-4.68 1.65-6.08.98-1.59 3.46-2.63 4.4-2.56.79 0 .64 1.51.82 3.13.08 1.59.08 4.14 0 6.3-.18 2.09-.9 5.91-.61 6.05.29-.14 1.59-3.99 2.09-5.87.18-1.94.18-3.27 0-5.11-.14-1.87-.43-3.78-.86-5.87 1.22-1.29 1.94-3.06 2.3-5.29.25-2.3.11-5.07-.43-8.31 1.62-1.59 3.31-3.21 5.22-4.72 1.94-1.51 3.78-3.06 6.05-4.5 2.52-2.3 4.89-4.25 7.27-5.69 2.37-1.55 5.58-3.53 6.69-3.31.83.18-.43 2.77-.86 4.28-.5 1.48-1.65 3.71-1.65 4.32-.08.44 1.08-.21 1.65-1.36.54-1.16 1.01-4.25 1.69-5.69.61-1.51 1.37-2.59 2.27-3.53.83-1.08 1.48-1.84 2.92-2.56 1.33-.75 3.02-1.29 5.22-1.76.61 2.41.54 4.9-.22 7.45-.94 2.67-2.66 5.47-4.35 7.85-1.77 2.16-5.33 4.75-5.44 5.29-.04.43 3.2-.97 5-2.55 1.62-1.73 4-7.06 4.79-7.24.65-.14-.25 4.5-.61 6.44-.4 1.88-2.05 4.97-1.66 4.72.29-.47 2.81-4.36 3.53-6.66.58-2.3.65-4.61.22-7.06.5-1.36.72-2.8 1.04-4.32.29-1.58.29-3.16.4-4.89 2.16-.9 4.68-1.59 7.7-2.34 3.06-.72 8.21-1.98 10.01-1.98 1.51-.15 1.01.25-.4 1.76-1.54 1.48-6.08 4.5-8.35 7.27-2.37 2.6-3.53 5.55-5.4 9-1.98 3.46-3.67 7.89-6.05 11.78-2.44 3.85-5.94 8.35-8.13 11.15-2.27 2.7-3.1 3.78-5.01 4.9-2.01.9-5.97 1.8-6.44 1.19-.36-.79 2.45-2.7 3.96-4.9 1.37-2.3 3.6-5.44 4.35-8.03.65-2.59.47-4.96-.39-7.27-.07-1.47-.97-2.34-2.31-2.73-1.51-.51-4.6-.25-6.23.21-1.72.4-2.8 1.23-3.77 2.34-1.19 1.08-2.16 2.52-2.49 4.32-.32 1.73 0 3.75.83 6.05-2.41-.21-4.25.18-5.22 1.19-1.05.9-1.19 2.38-1.01 4.72.11 2.34.61 5.36 1.66 9.21-2.67 1.44-4.36 3.13-5.22 5.08-.83 1.83 1.18 3.78.21 6.26-1.19 2.41-3.35 5.11-6.87 8.25 1-2.67 1.54-5.26 1.47-7.64-.07-2.48-1.08-5.47-1.9-6.87-1.01-1.48-2.13-1.84-3.75-1.77-1.8-.14-4.03.4-6.01 1.77s-4.39 4.17-5.44 6.48c-1.04 2.16-.79 5.04-.61 6.84.11 1.73.47 3.02 1.23 3.74-2.63 1.87-4.29 3.82-5.4 5.69-1.08 1.87-.51 3.56-1.05 5.47-.72 1.91-1.94 4.1-2.7 5.47-.75 1.23-1.58 1.62-2.09 1.59.76-2.52 1.01-4.83 1.05-7.06-.07-2.34-.54-5.4-1.26-6.26-.79-.83-1.8.28-3.32.97-1.65.43-4.39.97-5.83 2.16-1.51 1.11-1.65 2.73-2.52 4.71-.86 1.95-1.76 4.65-2.7 6.85-1.01 2.05-2.05 3.99-3.13 5.68-.58-2.91-1.33-5-2.27-6.4-1.04-1.37-2.55-1.84-3.56-1.98-1.08-.44-2.16-.26-2.7.39-.65.69-.4 2.49-1.05 3.75-.75 1.08-2.3 2.41-3.52 3.31-1.33.9-2.85 1.62-4.4 2.16a8.543 8.543 0 00-1.43-2.74c-.58-.54-.62-.72-1.48-.39-.94.28-2.56 1.26-3.75 1.94-1.29.43-2.52 1.15-3.52 1.19-1.01.03-1.15-.79-2.52-.97-1.44-.26-3.38-.44-5.83-.55z" fill="green"/><path d="M175.27 353.57l4.4-3.53c2.34 1.26 4.39 1.26 6.44.4 1.94-1.01 3.38-5.12 5.44-6.09 2.05-1.01 5.29.36 6.66-.18 1.26-.83.18-3.24 1.04-3.92.79-.61 2.27.32 3.74.18 1.34-.29 3.64-.97 4.58-1.77.86-.97.68-2.44.82-3.31.11-.93.44-1.15-.39-1.76-1.01-.69-2.77-1.3-5.44-1.98.72-1.12 2.09-1.59 3.96-1.55 1.84.04 5.44 1.66 7.31 1.94 1.76.18 2.48.04 3.53-.57.9-.76 1.94-1.8 2.3-3.13.15-1.44-.07-3.53-.65-4.72-.61-1.19-1.51-1.91-2.7-2.16 1.62-1.4 3.32-2.38 5.22-3.31 1.88-.9 4.86-1.19 6.05-1.98.98-.97.69-2.09.4-3.35-.4-1.33-.72-3.64-2.09-4.28-1.44-.69-3.42-.51-6.23.39.33-1.94 1.15-3.27 2.49-4.14 1.26-.94 3.49-.61 5.43-.97 1.91-.36 4.03-.4 5.83-1.37 1.59-1.12 2.2-4.25 4.36-5.11 2.2-1.01 6.73.39 8.75-.36 1.8-.9 2.41-2.74 2.52-4.14.07-1.51-.72-3.2-1.69-4.11-1.05-.9-2.45-1.4-4.36-1.36-2.05-.04-4.43.46-7.52 1.36-.25-2.16.43-4.14 1.91-6.08 1.47-2.12 4.6-4.14 6.87-5.47 2.16-1.26 3.64-1.73 6.23-1.98 2.45-.29 5.36.03 8.75 0 3.24-.25 8.49-.4 11.05-.97 2.56-.62 3.6-1.34 3.96-2.56.18-1.26-1.58-3.67-2.52-4.9-1.01-1.33-2.16-2.59-3.31-2.95-1.15-.47-2.34-.29-3.57.4 1.26-2.2 3.42-4.07 6.48-5.76 2.99-1.8 6.56-3.39 11.67-4.32 5-.9 13.61-1.01 18.32-1.16 4.61-.36 5.83-.43 9.36-.21 3.46.18 10.69 1.22 11.45 1.76.57.51-4.54.69-7.27 1.37-2.81.65-6.37 1.48-9.18 2.34-2.88.76-5.48 1.48-7.92 2.16-2.85-1.19-6.12-1.51-9.98-1.37-3.99.18-11.91 2.23-12.92 2.56-.97.25 5.04-.61 7.49-.79 2.41-.36 4.97-.69 7.09-.58 2.09.18 4.68.76 5 1.59.08.68-1.8 1.22-3.96 2.73-2.12 1.48-5.22 3.56-8.74 6.27-3.68 2.69-7.89 5.72-12.93 9.61-1.98 0-4.07.1-6.66.18-2.55.07-5.4.25-8.53.39-2.99-1.62-4.86-2.37-5.62-2.55-.82-.18.15 1.04.83 1.58.54.43 1.44.94 2.7 1.37-4.57.83-7.31 1.37-8.35 1.76-1.08.33.43.51 2.3.4 1.8-.15 4.65-.47 8.54-.97 2.41-.26 4.57-.33 6.47-.22 1.95.04 4.32-.07 4.79.65.25.57-.97 1.47-2.7 3.13-1.83 1.51-4.97 3.31-7.74 6.23-2.77 2.88-5.79 6.44-8.93 10.98-3.34.97-6.26 1.55-9.18 2.12-2.88.4-7.7.47-8.1.79-.46.26 2.56 1.05 5.19 1.01 2.41-.18 5.65-.57 9.57-1.58-1.58 1.87-3.31 3.92-5.18 6.3-1.94 2.3-4.03 4.86-6.26 7.67-3.39.07-5.91.25-7.71.39-1.8.11-3.27.43-2.91.58.32 0 3.09.11 4.57.18 1.33.07 2.52.32 3.56.61-1.58 1.62-3.27 3.38-5.22 5.29-1.94 1.87-4.03 3.78-6.26 5.87-2.41 1.91-4.21 4.07-7.49 6.48-3.46 2.48-8.75 6.05-12.28 8.21-3.49 1.98-5.25 2.59-8.35 3.92-3.27 1.23-6.62 2.52-10.62 3.75-1.33.61-2.3.75-2.91.57-.65-.21-1.05-.89-1.05-1.9z" fill="green"/><path d="M183.63 354.5c2.12-.89 7.56-2.26 11.44-4.1 3.78-1.94 7.28-4.32 11.45-7.27 4.21-3.06 8.64-6.88 13.14-10.77 4.32-4.06 9.4-9.28 12.89-12.74 3.35-3.46 4.93-4.97 7.52-7.85 2.53-3.06 5.26-6.55 7.92-9.79 2.6-3.31 5.08-6.73 7.89-9.43 2.66-2.74 5.22-4.18 8.35-6.66 3.06-2.74 6.41-5.65 10.19-8.61 3.81-2.91 8.57-6.26 12.31-8.64 3.53-2.48 6.05-4.5 9.36-6.04 3.24-1.7 6.48-2.67 10.4-3.75 3.96-1.15 9.54-2.34 12.71-2.73 2.95-.44 5.62-.18 5.22.18-.47.25-3.81.5-7.7 1.58-4.03 1.08-11.52 2.85-16.06 4.72-4.57 1.69-7.2 3.06-11.23 5.65-4.14 2.59-9.18 6.26-13.32 9.61-4.32 3.2-8.1 6.52-11.88 9.79-3.74 3.24-6.69 5.73-10.4 9.83-3.93 4.1-8.35 9.61-12.31 14.29-4.07 4.47-7.24 8.64-11.45 12.93-4.39 4.32-10.15 9.1-13.97 12.56-3.85 3.24-4.57 4.54-8.53 7.24-4.07 2.7-11.2 6.84-15.41 8.82-4.39 1.8-8.57 2.12-10.01 2.34-1.47.14-.75-.29 1.48-1.16z" fill="#5c6b2e"/><path d="M167.35 339.49a402.52 402.52 0 01-8.13-20.91c-2.67-7.38-4.79-13.43-7.78-23.01-3.09-9.79-6.62-21.02-10.73-34.67 5.8 3.6 10.23 6.7 13.68 9.44 3.39 2.66 5.69 4.82 6.48 6.62.65 1.73-1.58 2.59-2.41 4-.93 1.26-3.2 1.98-2.77 3.81.47 1.84 2.27 4.03 5.54 6.99-2.01.36-3.38 1.04-4.24 1.9-.9.76-1.05 1.77-.72 3.32.28 1.51 1.15 4.14 2.59 6.08 1.29 1.87 3.13 3.67 5.36 5.4-1.65.47-2.45 1.01-2.77 1.76-.4.69-.25.72 1.12 2.6 1.33 1.8 3.67 4.53 7.02 8.2-1.69.54-2.63 1.59-2.95 3.14-.33 1.51.86 3.49 1.08 6.08.07 2.59 0 5.54-.37 9.25z" fill="green"/><path d="M165.34 337.23c-2.95-7.49-5.62-14.3-7.99-21.1-2.45-6.77-4.47-12.96-6.45-19.15-2.16-6.23-3.85-11.88-5.76-17.93-1.94-6.19-3.85-12.28-5.72-18.65-2.16 2.09-3.67 4.57-4.83 7.31-1.08 2.74-1.8 6.73-1.87 9.07-.21 2.23.04 3.53.76 4.18 1.55-1.48 3.2-2.05 4.82-1.73 1.59.25 4.03 1.4 5.01 3.46.9 1.9.61 6.04.54 8.53-.15 2.44-.58 4.5-1.3 6.3 1.84-.04 3.2.47 4.25 1.36 1.04.8 1.44 1.59 1.87 4.04.32 2.44.43 6.04.18 10.8 1.58-1.19 2.66-1.37 3.53-.54.72.86.5 3.2 1.29 5.22.65 1.73 1.84 3.38 3.14 5.94 1.18 2.62 2.98 7.34 4.42 9.57 1.41 2.13 2.78 3.28 4.11 3.32z" fill="green"/><path d="M161.06 339.67c-1.16-1.44-12.1-10.29-17.97-16.56-6.01-6.33-11.59-13.28-17.03-20.55a283.13 283.13 0 01-15.19-22.47c-5.11-8.42-10.76-17.42-15.155-27-4.536-9.65-8.64-21.35-11.484-29.81-2.88-8.53-4.68-18.25-5.544-20.55-.936-2.27-.972 2.05.18 6.98s3.312 13.79 6.48 22.11c3.06 8.17 8.064 19.33 11.664 26.67 3.419 7.2 4.719 9.65 8.889 16.53 4.07 6.8 10.3 17.1 15.38 24.22 4.89 6.99 9.46 12.6 14.25 17.97 4.65 5.33 9.54 9.86 13.86 13.75 4.29 3.74 12.57 9.94 11.67 8.71z" fill="#5c6b2e"/><path d="M157.56 333.73c-2.08-1.76-4.42-3.96-6.87-7.13-2.56-3.2-6.55-8.89-7.96-11.52-1.44-2.66-1.37-4.21-.18-4.5-2.37-.68-4.35-1.54-5.94-2.44-1.62-.98-2.84-1.8-3.67-3.32-.9-1.69-1.66-4.86-1.3-6.44.26-1.62 1.3-2.66 3.14-3.13-3.14-1.37-5.62-2.41-7.6-3.67-2.09-1.19-4.25-1.98-4.25-3.5 0-1.54 1.37-3.7 4.25-6.08-2.63-1.37-4.36-2.84-5.18-4.72-.9-1.83-.9-3.92 0-6.26-4.72.04-8.07-.54-10.19-1.73-2.2-1.4-2.74-3.78-2.59-5.58.07-1.76 1.54-3.6 3.16-4.53 1.55-1.08 3.75-1.41 6.3-1.41 2.49-.11 5.33.43 8.68 1.23-1.62-2.2-3.53-3.89-5.72-5.22-2.34-1.26-5.8-1.77-7.6-2.78-1.76-1.18-2.81-3.13-3.13-4.28-.43-1.3-.36-2.34.36-3.13-2.99-.87-4.97-2.02-5.94-3.31-1.01-1.34-1.01-2.96 0-4.72-2.45.22-4.68-.18-6.843-1.04-2.268-.94-5.328-2.67-6.12-4.36-.864-1.91.468-4.97 1.476-6.26.864-1.41 1.98-1.88 4.464-1.55 2.453.36 5.903 1.37 10.373 3.45-.76-3.27-1.98-5.79-3.53-7.99-1.62-2.19-3.6-2.95-5.943-4.89-2.448-2.09-5.112-4.29-8.136-7.13-3.168-3.06-7.092-6.48-9.972-10.12-2.916-3.67-6.516-11.77-7.056-11.12-.612.65.612 5.65 3.528 15.15.72.58 1.44 1.37 2.016 2.24.468.75-.144 1.8 1.512 2.98 1.692 1.23 5.688 2.67 8.496 4.18 2.664 1.33 5.112 2.66 7.776 4.54 2.556 1.87 7.269 6.12 7.779 6.76.29.51-3.53-2.16-5.187-3.13a83.349 83.349 0 00-4.428-2.59c.828.9 1.26 1.84 1.296 2.95-.072 1.15-1.152 3.57-1.296 3.49-.216-.28.54-3.38.18-4.71-.468-1.41-1.44-2.23-2.772-3.31-1.512-1.19-3.564-2.16-5.58-3.32-2.016-1.19-4.176-2.16-6.479-3.31.972 4.32 2.196 9.22 4.068 14.98 1.764 5.72 3.996 12.02 6.696 19.18 1.944 1.8 4.392 3.28 7.2 4.86 2.882 1.37 6.512 2.67 9.652 4.03 2.95 1.26 8.49 4.18 8.31 4.18-.39-.07-6.05-2.34-10.01-4.03-3.92-1.73-8.42-3.71-13.496-6.09 1.116 3.35 2.484 6.74 4.248 10.44 1.692 3.6 4.138 8.18 5.938 11.34 1.73 3.07 3.1 5.44 4.25 7.13 2.74.61 4.97 1.05 6.84 1.59 1.87.39 3.74.9 4.1 1.22.08.25-1.18.36-2.8.32-1.66-.1-3.89-.39-6.84-.86 1.15 2.27 2.77 5.11 5 8.53 2.2 3.46 4.75 7.27 7.96 11.85 3.67.64 5.65 1.11 5.94 1.4.21.18-1.23.18-4.47 0 1.98 3.1 3.89 6.01 6.12 8.89 2.16 2.81 4.21 4.97 6.84 8 2.45 2.95 4.9 6.08 8.17 9.53 3.24 3.32 8.9 8.82 11.27 10.98 2.2 2.2 2.13 2.02 2.41 2.09.29-.07 0-.79-.72-2.3z" fill="green"/><path d="M161.99 344.42c-3.13-1-6.05-2.41-8.89-4.21-2.99-1.94-5.65-4.75-8.14-6.77-2.55-2.08-5.04-4.75-6.48-5.22-1.44-.46-1.54.98-1.87 2.24-.43 1.11-.61 2.62-.54 4.53-2.01-.9-3.63-2.16-5-3.63-1.44-1.55-2.59-3.03-3.31-5.4-.8-2.63-1.05-6.63-1.3-9.08-.4-2.41 0-4.28-.76-5.04-.9-.75-3.34-.21-4.42.51-1.23.61-2.09 1.65-2.6 3.67-.57 2.02-.72 4.61-.57 8.17-1.66-1.29-2.67-2.81-3.31-4.68-.69-1.83-.4-4.35-.4-6.44-.07-2.23.68-5.04.18-6.63-.61-1.65-1.84-2.7-3.67-3.13.11-3.81-.25-6.37-.94-7.67-.83-1.33-2.09-.46-3.35-.18-1.36.18-2.95.36-4.06 1.37-1.05.9-1.95 2.41-2.42 4.39-.141-1.36-.573-2.52-1.293-3.85-.756-1.33-1.908-2.55-3.312-3.81.972-1.8 1.62-3.32 1.656-4.54s-.396-2.16-1.296-2.81c.864-3.02 1.548-5.69 2.052-7.99.432-2.48.72-4.75.72-6.12-.108-1.37-.432-1.69-1.116-2.09-.792-.54-2.124-1.29-3.312-.86-1.26.36-2.736.97-3.888 2.95-1.26 1.84-2.376 4.57-3.348 8.21-1.584-3.21-2.52-5.94-2.952-8.21-.432-2.34.288-4 .36-5.54.036-1.77-.036-3.17-.36-4.22-.432-1.08-1.116-1.72-2.052-2.08.792-1.41 1.224-2.49 1.296-3.64-.036-1.12-.468-2.16-.9-2.99a7.712 7.712 0 00-1.692-2.23c.72-4.25 1.224-7.63 1.116-10.3-.144-2.73-.36-4.64-1.476-5.58-1.224-1-4.14-.5-5.544 0-1.548.44-2.412 1.05-3.168 2.81-.792 1.73-1.332 4.18-1.476 7.49-2.268-5-3.672-9.47-4.608-13.68-.864-4.28-.972-7.85-.756-11.52.072-3.82.504-7.31 1.296-10.62.828-3.31 2.268-6.26 3.348-8.71.936-2.41 1.62-3.78 2.196-5.91.576-2.3.288-7.38.936-7.3.576 0 1.692 4.71 2.232 7.48.468 2.67.72 4.65.36 8.86-.612 4.25-1.548 9.61-3.348 16.38-.972.97-1.764 1.98-2.376 3.31-.684 1.15-1.188 2.56-1.512 4.36-.468 1.69-.648 6.48-.54 6.44.144-.07.684-4.82 1.476-6.62.756-1.84 1.548-3.53 2.772-4.68-.396 2.88-.504 5.04-.18 6.62.216 1.59 1.62 3.1 1.836 2.59 0-.72-.9-4.32-.9-6.62.036-2.45.36-3.92 1.116-7.49.756-3.6 1.764-8.24 3.312-13.93.576 4.97 1.548 9.68 2.772 14.29 1.188 4.43 2.484 8.14 4.464 13.07 1.872 4.97 4.104 10.44 6.84 16.56-.756.9-1.368 2.63-1.836 5.04-.612 2.41-1.26 6.98-1.116 9.4.108 2.3 1.692 4.68 1.836 4.35.036-.61-1.368-4.35-1.296-6.8.036-2.34.9-6.12 1.476-7.31.468-1.26.72-.69 1.296-.36.36.18.54.5 1.512 1.94.9 1.44 1.98 2.81 4.068 6.44 2.052 3.5 4.569 8.32 7.959 14.62.07 2.27-.07 4.82-.58 7.67-.5 2.81-2.41 8.35-2.37 9.25-.04.72 1.62-2.63 2.19-4.21.51-1.69.69-3.71 1.12-5.37.43-1.72.65-4.75 1.47-4.35.83.29 2.09 4.86 3.35 6.77 1.12 1.76 2.02 2.41 3.53 4.71 1.51 2.42 4.46 6.02 5.36 9.4.76 3.24-.97 8.31-.75 9.94.11 1.4 1.11.21 1.47-1.05.29-1.37-.18-6.08.4-6.8.47-.72 1.73 1.11 2.95 2.45 1.12 1.22 2.67 2.95 4.25 5.03 1.55 2.06 3.38 4.4 5.36 7.17-.25 3.96-.36 6.87-.18 8.89.15 1.98.65 3.1.94 2.95.07-.28-.07-2.66 0-4.35 0-1.77.22-3.75.36-6.09 1.94 2.13 4.25 4.5 7.06 7.13 2.8 2.67 6.01 5.55 9.61 8.36 3.45 2.62 8.78 5.86 11.12 7.63 2.2 1.65 2.31 2.01 2.41 2.59.08.47-.5.83-1.87.68z" fill="green"/><path d="M116.63 341.83c-4.14-1.47-7.13-2.19-12.02-4.53-4.972-2.42-11.848-5.98-17.428-9.58-5.724-3.71-10.872-7.63-16.272-12.31-5.544-4.83-11.196-10.23-16.128-16.2-5.004-6.16-9.144-13.18-12.96-19.51-3.888-6.27-5.796-12.42-9.612-17.79-3.96-5.47-9-10.94-13.32-14.61-4.428-3.64-11.556-7.27-12.06-7.31-.432-.15 6.156 3.35 9.648 6.44 3.348 2.95 7.524 7.24 10.728 11.31 3.204 3.99 5.76 8.13 8.352 12.56 2.448 4.36 2.988 8.24 6.48 13.75 3.42 5.44 7.668 12.6 13.86 19.15 6.156 6.63 15.876 14.66 22.788 20.06 6.768 5.14 11.448 7.99 17.784 11.3 6.19 3.24 13.97 6.37 19.44 8.28 5.36 1.84 12.78 3.1 12.96 2.95-.04-.21-8.14-2.55-12.24-3.96z" fill="#5c6b2e"/><path d="M162.93 346.84c-3.42-1.26-5.91-2.2-7.6-2.96-1.8-.75-2.52-1.33-2.59-1.58-2.84.36-5.44.54-7.78.54-2.41-.07-5.04-.25-6.48-.68-1.54-.58-1.44-1.7-2.59-1.95-1.29-.29-3.45.54-4.82.54-1.44-.14-2.88-.39-3.49-1.04-.65-.58-.94-1.55-.58-2.63-2.23.65-3.92.83-5.36.54a5.23 5.23 0 01-3.14-2.27c-.64-1.08-1-2.3-.93-3.81-1.77-.47-2.99-.69-4.07-.36-1.08.25-1.44 1.08-2.05 1.9-.61.8-.97 2.27-1.66 2.78-.83.28-2.09.25-2.95-.51-.97-.86-2.05-2.55-2.41-3.81-.4-1.23-.43-2.38.18-3.32.54-.93 1.65-1.69 3.35-2.26-1.7-.58-3.68-.98-5.94-1.05-2.345-.07-5.765.83-7.781.33-2.088-.76-4.032-2.99-4.464-4.36-.54-1.51.756-3.02 1.512-4 .756-.97 1.548-1.54 2.772-1.72-1.764-.51-3.168-.9-4.068-1.59-.972-.68-1.584-1.44-1.692-2.27-1.8.72-3.42 1.08-5.004 1.23-1.728.07-3.78.21-4.608-.54-.72-1.05-.684-3.06-.18-4.5.216-1.44.576-2.74 2.196-3.49 1.656-.76 4.14-1.16 7.596-1.05-1.404-.5-2.52-1.22-3.492-2.45-1.044-1.26-1.656-2.73-2.232-4.71-2.196 1.04-4.068 1.58-5.76 1.76-1.692 0-3.24-.39-4.248-1.04-1.116-.61-1.692-1.73-2.016-2.95-.828.46-2.124.68-3.888.5-1.872-.22-5.688-.5-6.876-1.55-1.116-1.11-1.332-3.63-.36-5.07.792-1.59 2.52-3.39 5.184-4 2.592-.61 6.156-.65 10.548.18-2.628-1.08-4.968-2.2-7.02-3.49-2.196-1.37-4.356-2.95-5.364-4.18-1.008-1.22-1.152-2.27-.576-3.13-2.268.72-4.644 1.22-7.416 1.22-2.88-.1-7.056 0-9.072-1.04-2.16-1.15-3.204-3.06-3.132-4.9.036-1.94 1.548-4.6 3.708-5.76 2.088-1.11 5.652-1.08 8.892-.86 3.132.11 6.408.68 9.972 1.73-.504-3.06-2.304-5.76-5.544-7.96-3.24-2.3-9.288-4.06-13.716-5.58-4.572-1.62-8.136-2.05-13.32-3.63-5.364-1.69-13.86-4.47-18.144-5.94-4.428-1.66-7.416-3.24-7.596-2.95-.108.32 4.428 3.49 6.66 5.04 2.124 1.4 4.104 2.16 5.94 3.67a20.447 20.447 0 014.428 4.86c2.88-.36 5.4-.61 7.416-1.05 2.124-.47 4.14-1.47 4.644-1.36.216 0-2.268 1.22-2.988 1.72-.792.36-2.124.51-1.476.87.648.29 3.276.68 5.364 1.04 1.98.22 4.068.36 6.696.72 2.484.33 5.652.18 8.676 1.37 2.916 1.12 8.424 4.72 9.288 5.4.756.57-2.16-.97-4.284-1.73-2.268-.9-6.12-2.7-8.496-3.31-2.412-.69-5.436-.87-5.76-.54-.396.29 2.268 1.22 3.528 2.27 1.224.97 3.528 2.95 3.708 3.31.036.25-1.872-.97-3.348-1.73-1.728-.9-3.744-2.66-5.904-3.49-2.124-.79-4.464-1.26-6.48-1.55-2.088-.43-4.608-1.01-5.76-.9-1.224-.03-1.656.32-1.296 1.23.216.89 1.332 2.16 2.772 4.17 1.404 1.87 3.816 4.32 5.58 7.35 1.728 2.91 3.168 6.33 4.608 10.26 1.152.68 3.312 1.22 6.876 1.76 3.528.43 11.916.83 14.04 1.19 1.908.22-.288.68-2.016.72-1.836.04-5.652-.04-8.532-.36-2.916-.32-5.76-.79-8.676-1.4.648 1.98 1.764 4.21 3.492 6.98 1.692 2.77 4.5 6.62 6.48 9.22 1.836 2.41 3.276 4.21 4.464 5.4 1.26.39 2.808.75 4.788 1.08 1.908.25 3.6.72 6.876.86 3.204.14 11.304-.18 12.78 0 1.296.11-2.124.43-4.284.68-2.268.11-5.76.51-8.676.36-3.024-.21-7.56-1.36-8.892-1.22s-.108.9.9 2.27c.936 1.29 2.808 3.42 4.644 5.4 1.656 1.87 3.744 3.81 5.724 5.69 2.016 1.76 3.96 3.34 6.12 4.89 2.304 0 4.356-.18 6.3-.54 1.98-.43 4.5-1.83 5.184-1.73.36.04-.468 1.59-2.052 2.27-1.62.65-3.888 1.12-7.2 1.55 1.944 1.62 4.284 3.31 7.02 5.22 2.7 1.8 4.86 3.74 9.252 6.12 4.356 2.34 11.091 5.47 16.851 7.85 5.65 2.27 11.34 4.07 17.06 5.54 5.62 1.41 10.84 2.34 16.63 2.81 5.69.32 11.45.14 17.43-.54z" fill="green"/><path d="M144.42 351.37c-.86-.36-1.94-.64-3.53-.86-1.65-.36-3.7-.86-5.76-.54-2.12.43-5.22 2.23-6.66 2.63-1.44.18-1.65-.87-2.19-1.05-.69-.25-.97-.57-1.69 0-.8.54-1.73 2.88-2.96 3.14-1.36.03-3.63-2.02-5-2.27-1.4-.26-2.77.14-3.71 1.04-1.37-1.55-2.55-2.77-3.71-3.81-1.22-1.12-1.9-1.98-3.31-2.45-1.55-.58-4.25-1.12-5.18-.51-.938.51-.4 2.63-.18 4 .14 1.3.57 2.63 1.29 4-2.048-.04-3.92-.73-5.756-2.45-1.872-1.77-3.42-5.29-5.184-7.67-1.872-2.45-3.636-5.11-5.724-6.59-2.124-1.55-4.86-2.41-6.84-2.45-2.088-.14-4.572-.1-5.22 1.91-.648 1.94-.144 5.15 1.512 9.76-1.548-.47-3.024-1.41-4.284-2.95-1.404-1.62-2.844-4-3.492-6.45-.684-2.55-.072-6.37-.396-8.39-.36-1.97-.54-2.77-1.656-3.63-1.404-1.05-3.78-2.16-5.724-2.09-1.98.07-4.392.79-5.58 2.59-1.152 1.8-1.584 4.29-1.296 7.85-1.404-1.84-2.376-3.64-3.312-5.4-.936-1.87-1.764-3.35-2.052-5.4-.288-2.23-.072-4.97-.18-6.95-.288-2.01-.396-3.7-1.296-4.53-1.008-.9-3.132-1.05-4.428-.72-1.296.25-2.592 1.15-3.348 2.27-.9 1.04-1.404 2.23-1.656 3.85-1.62-2.88-2.7-5.22-3.528-7.17-.828-1.98-1.44-2.34-1.296-4.53.036-2.34 1.08-6.05 1.476-9.04.324-3.13.432-6.23.18-8.89-.324-2.74-1.26-5.33-2.412-6.8-1.44-1.52-3.492-2.34-5.184-2.09-1.836.03-3.816 1.15-4.968 3.06-1.188 1.91-1.764 4.75-1.872 8.53-.9-.43-2.052-1.69-3.312-3.49-1.404-1.95-3.636-4.65-4.464-7.67-.792-3.13-.36-6.8-.36-10.44-.144-3.71.036-8.14 0-11.34-.036-3.35.072-5.47-.36-8.17-.684-2.81-3.348-7.53-2.988-8.17.36-.8 3.492 2.48 5.364 3.99 1.764 1.44 3.456 3.06 5.22 4.86.324 1.51.252 4.07.18 7.67-.216 3.56-1.188 9.97-1.116 13.79.036 3.67 1.368 7.81 1.656 8.53.18.5-.072-2.88-.18-4.72-.216-1.83-.72-4.46-.54-6.08.144-1.73.432-4.03 1.26-3.85.648.14 1.656 3.52 3.168 4.89 1.404 1.3 5.292 2.74 5.544 2.78.144-.15-3.168-2.13-4.248-3.32-1.044-1.29-1.656-2.84-2.232-3.81-.684-1.01-1.404-1.66-2.016-1.95-.144-1.36-.144-2.95 0-5.04.036-2.12.216-4.46.54-7.3 2.304 1.97 4.536 4.46 6.84 7.3 2.196 2.85 4.788 6.56 6.66 9.76 1.656 3.1 2.88 6.19 4.104 8.89a115.47 115.47 0 003.492 6.81c-.684 5.4-1.368 9.36-2.196 12.02-.9 2.56-2.34 1.87-2.772 3.64-.432 1.69-.504 5.11.18 6.8.54 1.62 3.276 2.74 3.492 2.77.036-.21-1.836-2.01-2.412-3.31-.54-1.3-.828-3.35-.72-4.36.036-1.08.504-1.58 1.116-2.08.576-.65 1.476-2.02 2.412-1.19.972.75 2.556 5.69 2.952 5.9.18-.03-1.008-3.71-1.476-5.04-.576-1.33-.936-2.02-1.476-2.45l2.412-9.75c2.052 2.77 3.924 5.4 5.904 8.02 1.944 2.6 3.744 5.04 5.544 7.49.288 1.41.288 3.32 0 5.73-.36 2.34-1.8 6.15-1.836 8.53-.144 2.34.288 3.96 1.296 5.25-.576-1.97-.756-3.74-.54-5.58.144-1.9 1.152-3.13 1.656-5.22.468-2.19.792-4.5 1.116-7.34 1.548 1.8 3.816 4.07 6.66 6.8 2.88 2.67 6.192 5.8 10.368 9.4-.612 2.99-1.08 5.22-1.116 7.23-.072 1.91.288 4.18.54 4.18.108-.18-.108-2.84.18-4.53.252-1.66.684-3.46 1.296-5.4.612.61 2.34 1.9 5.58 4.03 3.168 2.05 7.56 4.79 13.32 8.35-.252 1.91.108 3.89.936 6.08.756 2.09 3.78 6.63 4.068 6.81.252 0-1.656-4.28-2.232-5.9-.612-1.73-1.224-2.92-1.296-3.86-.216-.86-.036-1.47.396-1.55 1.728.73 4.392 1.88 8.132 3.32 3.71 1.44 10.41 4.06 14.26 5.4 3.71 1.26 5.36 1.69 8.32 2.27 2.88.43 5.14.28 8.89.68 3.63.4 8.17 1.33 12.78 1.55 4.57.18 12.24-.97 14.25-.69 1.8.18-.25.94-2.95 1.59-2.66.43-7.09 1.07-13.14 1.54z" fill="green"/><path d="M94.778 403.86c3.636-2.34 13.532-6.77 20.552-11.34 6.88-4.64 14.19-9.97 20.56-15.84 6.23-5.87 12.17-14.98 16.85-18.97 4.57-4.11 10.4-5.29 10.55-5.08-.15.11-7.31 3.67-10.37 6.27-3.1 2.55-4.93 5.9-7.6 9.07-2.7 3.09-5.4 6.12-8.49 9.21-3.28 2.88-6.66 5.55-10.55 8.57-3.96 3.06-7.24 5.87-12.6 9.4-5.55 3.35-16.634 9.21-19.802 10.8-3.168 1.4-2.772.11.9-2.09z" fill="#5c6b2e"/><path d="M144.78 353.17c-.28 1.59-.82 2.92-1.47 4-.83 1.04-1.69 2.3-2.59 2.27-.9-.15-1.77-1.3-2.6-3.32-1.76 1.01-3.2 2.56-4.46 4.36-1.3 1.8-2.16 4.93-3.13 6.62-1.12 1.52-1.73 2.56-2.95 3.14-1.3.64-3.57.68-4.29.5-.79-.29-.39-1.04-.18-2.41.07-1.48.58-3.67 1.12-6.45-1.87 1.81-3.67 3.71-5.55 6.27-1.98 2.48-4.39 5.72-5.58 8.35-1.15 2.56-.14 4.9-1.29 6.63-1.3 1.51-4.39 2.44-6.09 2.95-1.83.54-3.92 1.11-4.46.18-.58-1.15.29-4.21.94-6.27.57-2.05 1.18-4.03 2.23-5.93-2.31 2.05-4.14 3.92-5.367 5.76-1.296 1.72-1.764 3.13-2.232 5.04-.54 1.9-.576 4.14-.936 6.3-.396 1.94-.936 4.03-1.476 6.26-.612 2.2-1.296 4.57-2.052 7.13l5.184-3.82c1.152-6.77 2.088-10.51 2.412-11.66.257-1.08-.036 3.24-.18 5.04-.144 1.73-.324 3.27-.54 5.04 1.437-.11 3.167-.58 5.187-1.41 1.94-.9 4.97-2.48 6.84-3.63 1.76-1.19 3.31-2.23 4.25-3.13 1.58-2.78 2.52-5.12 2.41-7.31-.15-2.2-2.74-5.22-2.77-5.76-.08-.69 1.8 2.73 2.41 2.09.47-.72.5-4.58.93-6.27.44-1.83 1.52-4.21 1.84-4.35.14-.11-.11 1.83-.36 3.49-.4 1.51-.86 2.91-1.12 5.72-.18 2.77-.18 6.09 0 10.48 1.98-1.26 3.89-2.7 5.73-4.03 1.69-1.41 3.42-2.81 5.18-4.36 1.84-1.66 3.6-3.35 5.58-5.22-.54-5.11-.83-8.89-.57-11.34.18-2.63 1.44-3.56 1.69-3.64.11-.03-.65 2.2-.76 3.5-.18 1.26-.36 2.41 0 3.99.25 1.55.87 3.13 1.84 5.04 1.51-1.29 3.06-2.7 4.64-4.5 1.59-1.83 2.99-3.78 4.61-6.12.58-3.71 1.15-5.69 1.33-6.08.18-.36.18.86 0 3.81 1.73-1.87 3.39-3.49 5.37-4.86 1.83-1.51 5.76-3.06 6.08-3.67.18-.68-2.77-.47-4.43-.18-1.76.11-3.99 1.08-5.72 1.41-1.73.32-3.28.39-4.65.35z" fill="green"/><path d="M90.351 408.58c4.068-1.34 7.38-2.16 9.789-2.63 2.34-.47 2.38-.07 4.83-.18 2.37-.22 6.69-.51 9.65-.87 2.84-.61 5.43-1.15 7.77-1.76 2.34-.58 4.14-.72 6.09-1.55 1.87-.97 3.34-2.16 4.82-3.85-2.23.47-3.92.58-5.36.18s-2.63-1.58-3.17-2.59c-.76-1.15-.94-2.81-.54-3.85.43-1.12 1.37-2.13 2.95-2.6 1.48-.46 3.71-.61 6.3-.72 2.52-.32 6.55-.61 8.89-.86 2.13-.36 3.03-.4 4.65-1.22 1.58-.98 3.31-2.27 5.18-4.18-2.81.07-4.86-.25-6.3-.69-1.4-.46-2.05-1.22-2.23-2.26-.33-1.26-.15-3.71.54-4.72.61-1.08 1.47-1.23 2.99-1.55 1.51-.36 3.63-.65 5.54-.86 1.69-.33 3.42-.54 5.18-1.08 1.7-.61 3.42-1.48 5.19-2.59-2.63-.15-4.47-.54-5.37-1.05-1-.57-.57-1.48-.36-2.27.04-.97.44-2.05 1.48-2.81 1.15-.75 3.85-1.04 5.18-1.54 1.16-.51.9-.44 2.02-1.73 1.04-1.55 4.25-6.01 4.46-6.99.15-.97-1.94.4-3.34 1.05-1.55.47-4.11 1.55-5.73 2.27-1.76.68-2.88 1.15-4.46 2.08-1.69.8-3.82 2.02-4.97 3.14-1.3 1.08-2.02 2.37-1.87 3.49.21 1.01 1.73 1.69 3.13 2.59 1.3.72 4.64 2.12 4.64 2.27-.25.07-3.85-1.04-5.36-1.55-1.48-.61-2.59-1.15-3.35-1.76-1.33 1.51-2.81 3.09-4.43 4.89-1.8 1.8-3.49 3.82-5.36 5.76-1.87 1.84-3.53 3.53-5.36 5.22 1.9.83 3.99 1.3 6.26 1.55 2.23.18 7.06-.39 7.24-.18.03.11-4.32 1.3-6.84 1.23-2.67-.11-5.44-.69-8.72-1.73a294.68 294.68 0 01-5.54 4.89c-2.23 1.84-4.32 3.71-7.24 5.91-3.06 2.01-10.08 5.47-10.36 6.62-.33.94 5.32-.14 8.35-.18 2.95-.07 8.67-.25 9.25 0 .25.14-4.28.43-6.66.86-2.3.18-4.79.62-7.06.72-2.34.08-4.57.08-6.84 0-1.76.98-3.92 1.98-6.477 3.32-2.629 1.26-5.652 2.66-9.072 4.36z" fill="green"/><path d="M176.35 366.85c.4 2.06.54 4.18.44 6.38-.22 2.15-1.26 5.83-1.19 6.58.03.58 1.08-1.58 1.47-2.73.33-1.19.51-2.88.54-4.68.4 1.65.94 2.52 1.91 2.73 1.01.11 3.35-1.44 3.53-1.58-.07-.15-2.74.9-3.53.76-.79-.22-1.22-.94-1.15-2.02 1.4-2.13 2.23-3.42 2.34-3.75-.03-.39-1.33.94-1.8 1.52-.54.43-.94.93-1.19 1.36-.07-2.15-.21-3.56-.43-4.35s-.57-.87-.94-.22zM184.67 368.62c-.43 2.41-.47 4.1-.11 5.22.33.97 1.05 1.33 2.02 1.08.86-.29 1.76-1.3 2.99-2.88.25.93.72 1.58 1.26 2.23.54.57 2.09 1.37 2.12 1.26-.07-.33-1.83-1.48-2.23-2.34-.54-.97-.4-2.02-.54-2.85-.18-.9-.25-2.44-.5-2.01-.47.39-1.01 3.45-1.62 4.46-.69.97-1.84 1.33-2.34 1.37-.51-.11-.83-.68-.83-1.58 0-.98.61-3.42.72-4.04-.11-.68-.33-.61-.94.08z"/></g></svg>