<?xml version="1.0" encoding="UTF-8"?>
<!DOCTYPE svg PUBLIC "-//W3C//DTD SVG 1.1//EN" "http://www.w3.org/Graphics/SVG/1.1/DTD/svg11.dtd">
<svg xmlns="http://www.w3.org/2000/svg" version="1.1" width="1400px" height="880px" style="shape-rendering:geometricPrecision; text-rendering:geometricPrecision; image-rendering:optimizeQuality; fill-rule:evenodd; clip-rule:evenodd" xmlns:xlink="http://www.w3.org/1999/xlink">
<g><path style="opacity:1" fill="#004890" d="M 713.5,131.5 C 719.43,134.961 725.764,137.627 732.5,139.5C 739.386,141.609 746.052,144.276 752.5,147.5C 753.911,149.539 755.911,150.539 758.5,150.5C 775.741,157.463 792.741,164.796 809.5,172.5C 813.111,174.931 817.111,176.597 821.5,177.5C 821.833,177.5 822.167,177.5 822.5,177.5C 823.911,179.539 825.911,180.539 828.5,180.5C 892.373,207.454 956.04,234.788 1019.5,262.5C 1022.95,265.219 1026.95,266.885 1031.5,267.5C 1040.92,271.031 1050.25,274.864 1059.5,279C 1135.17,279.333 1210.83,279.667 1286.5,280C 1287.49,301.091 1287.83,322.258 1287.5,343.5C 1324.83,343.5 1362.17,343.5 1399.5,343.5C 1399.5,485.167 1399.5,626.833 1399.5,768.5C 932.833,768.5 466.167,768.5 -0.5,768.5C -0.5,626.833 -0.5,485.167 -0.5,343.5C 36.8333,343.5 74.1667,343.5 111.5,343.5C 113.489,322.86 114.155,301.86 113.5,280.5C 188.669,280.833 263.669,280.499 338.5,279.5C 343.387,277.223 348.387,275.223 353.5,273.5C 356.089,273.539 358.089,272.539 359.5,270.5C 380.828,261.501 402.162,252.501 423.5,243.5C 426.089,243.539 428.089,242.539 429.5,240.5C 454.759,229.637 480.092,218.97 505.5,208.5C 509.889,207.597 513.889,205.931 517.5,203.5C 577.85,176.998 638.517,150.998 699.5,125.5C 704.508,126.939 709.175,128.939 713.5,131.5 Z"/></g>
<g><path style="opacity:0.725" fill="#4374aa" d="M 713.5,131.5 C 720.224,133.403 726.557,136.069 732.5,139.5C 725.764,137.627 719.43,134.961 713.5,131.5 Z"/></g>
<g><path style="opacity:0.42" fill="#628ab8" d="M 752.5,147.5 C 754.819,147.992 756.819,148.992 758.5,150.5C 755.911,150.539 753.911,149.539 752.5,147.5 Z"/></g>
<g><path style="opacity:0.42" fill="#5582b3" d="M 809.5,172.5 C 813.889,173.403 817.889,175.069 821.5,177.5C 817.111,176.597 813.111,174.931 809.5,172.5 Z"/></g>
<g><path style="opacity:0.42" fill="#628ab8" d="M 822.5,177.5 C 824.819,177.992 826.819,178.992 828.5,180.5C 825.911,180.539 823.911,179.539 822.5,177.5 Z"/></g>
<g><path style="opacity:0.42" fill="#4e7db0" d="M 517.5,203.5 C 513.889,205.931 509.889,207.597 505.5,208.5C 509.111,206.069 513.111,204.403 517.5,203.5 Z"/></g>
<g><path style="opacity:0.42" fill="#628bb8" d="M 429.5,240.5 C 428.089,242.539 426.089,243.539 423.5,243.5C 425.181,241.992 427.181,240.992 429.5,240.5 Z"/></g>
<g><path style="opacity:0.725" fill="#4474ab" d="M 1019.5,262.5 C 1023.89,263.403 1027.89,265.069 1031.5,267.5C 1026.95,266.885 1022.95,265.219 1019.5,262.5 Z"/></g>
<g><path style="opacity:0.42" fill="#628bb8" d="M 359.5,270.5 C 358.089,272.539 356.089,273.539 353.5,273.5C 355.181,271.992 357.181,270.992 359.5,270.5 Z"/></g>
<g><path style="opacity:0.725" fill="#7194be" d="M 338.5,279.5 C 263.669,280.499 188.669,280.833 113.5,280.5C 114.155,301.86 113.489,322.86 111.5,343.5C 111.173,322.258 111.506,301.091 112.5,280C 187.833,279.5 263.166,279.333 338.5,279.5 Z"/></g>
<g><path style="opacity:1" fill="#fefefe" d="M 158.5,393.5 C 179.833,393.5 201.167,393.5 222.5,393.5C 222.167,471.335 222.501,549.002 223.5,626.5C 255.996,627.498 288.662,627.832 321.5,627.5C 321.5,645.833 321.5,664.167 321.5,682.5C 267.167,682.5 212.833,682.5 158.5,682.5C 158.5,586.167 158.5,489.833 158.5,393.5 Z"/></g>
<g><path style="opacity:1" fill="#628fba" d="M 158.5,393.5 C 179.994,392.503 201.66,392.169 223.5,392.5C 223.5,470.5 223.5,548.5 223.5,626.5C 222.501,549.002 222.167,471.335 222.5,393.5C 201.167,393.5 179.833,393.5 158.5,393.5 Z"/></g>
<g><path style="opacity:1" fill="#fdfdfe" d="M 1078.5,456.5 C 1077.55,457.919 1077.22,459.585 1077.5,461.5C 1062.83,461.5 1048.17,461.5 1033.5,461.5C 1033.5,438.833 1033.5,416.167 1033.5,393.5C 1051.5,393.333 1069.5,393.5 1087.5,394C 1084.89,414.985 1081.89,435.818 1078.5,456.5 Z"/></g>
<g><path style="opacity:1" fill="#fdfefe" d="M 1083.5,677.5 C 1082.19,668.062 1081.53,658.395 1081.5,648.5C 1081.5,638.994 1081.83,629.661 1082.5,620.5C 1104.97,628.156 1127.64,634.989 1150.5,641C 1157.86,641.831 1165.19,641.665 1172.5,640.5C 1188.46,633.784 1191.29,623.451 1181,609.5C 1178.56,608.023 1176.39,606.19 1174.5,604C 1158.47,595.553 1142.14,587.887 1125.5,581C 1112.99,574.32 1101.82,565.82 1092,555.5C 1076.46,533.928 1072.46,510.261 1080,484.5C 1091.61,457.907 1111.77,442.074 1140.5,437C 1151.46,435.514 1162.46,435.181 1173.5,436C 1198.4,440.871 1221.57,450.038 1243,463.5C 1243.83,480.843 1243.67,498.176 1242.5,515.5C 1225.69,508.174 1208.69,501.341 1191.5,495C 1180,491.973 1168.34,490.973 1156.5,492C 1142.56,496.225 1138.06,505.058 1143,518.5C 1153.9,529.714 1167.06,537.214 1182.5,541C 1200.55,549.351 1216.88,560.184 1231.5,573.5C 1250.36,594.96 1255.19,619.293 1246,646.5C 1236.08,674.093 1216.58,689.26 1187.5,692C 1151.78,693.097 1117.11,688.263 1083.5,677.5 Z"/></g>
<g><path style="opacity:1" fill="#e4ebf3" d="M 1269.5,442.5 C 1287.52,442.019 1295.69,450.686 1294,468.5C 1287.85,480.114 1278.35,483.948 1265.5,480C 1254.74,473.307 1251.91,464.14 1257,452.5C 1260.49,448.162 1264.66,444.829 1269.5,442.5 Z"/></g>
<g><path style="opacity:1" fill="#d6e2ed" d="M 514.5,447.5 C 512.436,447.313 510.436,446.813 508.5,446C 461.478,445.186 414.478,445.353 367.5,446.5C 368.263,445.732 369.263,445.232 370.5,445C 416.833,444.333 463.167,444.333 509.5,445C 511.491,445.374 513.158,446.207 514.5,447.5 Z"/></g>
<g><path style="opacity:1" fill="#d8e4ee" d="M 766.5,445.5 C 766.5,445.167 766.5,444.833 766.5,444.5C 787.833,444.5 809.167,444.5 830.5,444.5C 830.667,516.501 830.5,588.501 830,660.5C 829.768,661.737 829.268,662.737 828.5,663.5C 829.487,590.856 829.821,518.189 829.5,445.5C 808.5,445.5 787.5,445.5 766.5,445.5 Z"/></g>
<g><path style="opacity:1" fill="#8fafce" d="M 867.5,444.5 C 867.5,444.833 867.5,445.167 867.5,445.5C 867.5,524.5 867.5,603.5 867.5,682.5C 917.833,682.5 968.167,682.5 1018.5,682.5C 1018.83,682.5 1019.17,682.5 1019.5,682.5C 968.669,683.499 917.669,683.832 866.5,683.5C 866.167,603.665 866.501,523.998 867.5,444.5 Z"/></g>
<g><path style="opacity:1" fill="#d9e5ee" d="M 867.5,445.5 C 867.5,445.167 867.5,444.833 867.5,444.5C 918.167,444.5 968.833,444.5 1019.5,444.5C 1019.83,463.341 1019.5,482.007 1018.5,500.5C 1018.5,482.167 1018.5,463.833 1018.5,445.5C 968.167,445.5 917.833,445.5 867.5,445.5 Z"/></g>
<g><path style="opacity:1" fill="#fefefe" d="M 514.5,447.5 C 523.707,451.553 529.373,458.553 531.5,468.5C 532.489,531.471 532.822,594.471 532.5,657.5C 528.933,671.735 519.933,680.068 505.5,682.5C 459.817,682.803 414.15,682.469 368.5,681.5C 358.058,677.557 351.225,670.224 348,659.5C 347.333,595.5 347.333,531.5 348,467.5C 350.916,457.087 357.416,450.087 367.5,446.5C 414.478,445.353 461.478,445.186 508.5,446C 510.436,446.813 512.436,447.313 514.5,447.5 Z"/></g>
<g><path style="opacity:1" fill="#d8e4ee" d="M 632.5,444.5 C 632.5,444.833 632.5,445.167 632.5,445.5C 611.5,445.5 590.5,445.5 569.5,445.5C 569.5,516.5 569.5,587.5 569.5,658.5C 568.501,587.335 568.167,516.002 568.5,444.5C 589.833,444.5 611.167,444.5 632.5,444.5 Z"/></g>
<g><path style="opacity:1" fill="#fefefe" d="M 671.5,444.5 C 690.167,444.5 708.833,444.5 727.5,444.5C 727.5,505.5 727.5,566.5 727.5,627.5C 740.5,627.5 753.5,627.5 766.5,627.5C 766.5,566.833 766.5,506.167 766.5,445.5C 787.5,445.5 808.5,445.5 829.5,445.5C 829.821,518.189 829.487,590.856 828.5,663.5C 824.763,672.237 818.43,678.237 809.5,681.5C 780.183,682.618 750.85,682.784 721.5,682C 718.522,681.304 715.522,680.804 712.5,680.5C 705.739,677.731 701.406,672.731 699.5,665.5C 695.998,675.5 688.998,681.333 678.5,683C 650.167,683.667 621.833,683.667 593.5,683C 580.566,679.567 572.566,671.401 569.5,658.5C 569.5,587.5 569.5,516.5 569.5,445.5C 590.5,445.5 611.5,445.5 632.5,445.5C 632.5,506.167 632.5,566.833 632.5,627.5C 645.5,627.5 658.5,627.5 671.5,627.5C 671.5,566.5 671.5,505.5 671.5,444.5 Z"/></g>
<g><path style="opacity:1" fill="#fefefe" d="M 867.5,445.5 C 917.833,445.5 968.167,445.5 1018.5,445.5C 1018.5,463.833 1018.5,482.167 1018.5,500.5C 989.5,500.5 960.5,500.5 931.5,500.5C 931.5,512.5 931.5,524.5 931.5,536.5C 960.167,536.5 988.833,536.5 1017.5,536.5C 1018.83,554.5 1018.83,572.5 1017.5,590.5C 988.833,590.5 960.167,590.5 931.5,590.5C 931.5,602.5 931.5,614.5 931.5,626.5C 960.329,627.498 989.329,627.831 1018.5,627.5C 1018.5,645.833 1018.5,664.167 1018.5,682.5C 968.167,682.5 917.833,682.5 867.5,682.5C 867.5,603.5 867.5,524.5 867.5,445.5 Z"/></g>
<g><path style="opacity:1" fill="#9cb8d4" d="M 1078.5,456.5 C 1078.5,458.5 1078.5,460.5 1078.5,462.5C 1063.32,462.829 1048.32,462.496 1033.5,461.5C 1048.17,461.5 1062.83,461.5 1077.5,461.5C 1077.22,459.585 1077.55,457.919 1078.5,456.5 Z"/></g>
<g><path style="opacity:1" fill="#194f94" d="M 1269.5,446.5 C 1279.42,444.542 1286.25,448.209 1290,457.5C 1291.03,474.474 1283.36,480.807 1267,476.5C 1260.3,471.053 1257.96,464.053 1260,455.5C 1262.41,451.592 1265.57,448.592 1269.5,446.5 Z"/></g>
<g><path style="opacity:1" fill="#ecf1f7" d="M 1280.5,451.5 C 1282.92,452.692 1283.92,454.692 1283.5,457.5C 1283.69,460.811 1282.36,463.311 1279.5,465C 1280.62,467.616 1281.95,470.116 1283.5,472.5C 1282.17,473.833 1280.83,473.833 1279.5,472.5C 1278.17,470.167 1276.83,467.833 1275.5,465.5C 1273.95,464.548 1272.29,464.215 1270.5,464.5C 1270.5,467.5 1270.5,470.5 1270.5,473.5C 1269.5,473.5 1268.5,473.5 1267.5,473.5C 1267.5,466.167 1267.5,458.833 1267.5,451.5C 1271.83,451.5 1276.17,451.5 1280.5,451.5 Z"/></g>
<g><path style="opacity:1" fill="#225498" d="M 1270.5,454.5 C 1273.19,454.336 1275.85,454.503 1278.5,455C 1281.17,456.667 1281.17,458.333 1278.5,460C 1275.85,460.497 1273.19,460.664 1270.5,460.5C 1270.5,458.5 1270.5,456.5 1270.5,454.5 Z"/></g>
<g><path style="opacity:1" fill="#4476ac" d="M 1280.5,451.5 C 1276.17,451.5 1271.83,451.5 1267.5,451.5C 1267.5,458.833 1267.5,466.167 1267.5,473.5C 1266.51,466.018 1266.17,458.352 1266.5,450.5C 1271.36,450.181 1276.03,450.514 1280.5,451.5 Z"/></g>
<g><path style="opacity:1" fill="#175799" d="M 531.5,468.5 C 532.222,468.918 532.722,469.584 533,470.5C 533.832,533.001 533.665,595.335 532.5,657.5C 532.822,594.471 532.489,531.471 531.5,468.5 Z"/></g>
<g><path style="opacity:1" fill="#5f8bb9" d="M 468.5,626.5 C 468.167,626.5 467.833,626.5 467.5,626.5C 467.5,584.833 467.5,543.167 467.5,501.5C 449.167,501.5 430.833,501.5 412.5,501.5C 412.5,543.167 412.5,584.833 412.5,626.5C 412.167,626.5 411.833,626.5 411.5,626.5C 411.5,584.5 411.5,542.5 411.5,500.5C 430.5,500.5 449.5,500.5 468.5,500.5C 468.5,542.5 468.5,584.5 468.5,626.5 Z"/></g>
<g><path style="opacity:1" fill="#004890" d="M 467.5,626.5 C 449.167,626.5 430.833,626.5 412.5,626.5C 412.5,584.833 412.5,543.167 412.5,501.5C 430.833,501.5 449.167,501.5 467.5,501.5C 467.5,543.167 467.5,584.833 467.5,626.5 Z"/></g>
<g><path style="opacity:1" fill="#d7e3ed" d="M 1017.5,536.5 C 1018.83,545.141 1019.5,554.141 1019.5,563.5C 1019.5,572.859 1018.83,581.859 1017.5,590.5C 1018.83,572.5 1018.83,554.5 1017.5,536.5 Z"/></g>
<g><path style="opacity:1" fill="#d6e2ed" d="M 1082.5,620.5 C 1081.83,629.661 1081.5,638.994 1081.5,648.5C 1081.53,658.395 1082.19,668.062 1083.5,677.5C 1082.5,677.5 1081.5,677.5 1080.5,677.5C 1080.17,658.155 1080.5,638.822 1081.5,619.5C 1082.11,619.624 1082.44,619.957 1082.5,620.5 Z"/></g>
<g><path style="opacity:1" fill="#d9e5ee" d="M 411.5,626.5 C 411.833,626.5 412.167,626.5 412.5,626.5C 430.833,626.5 449.167,626.5 467.5,626.5C 467.833,626.5 468.167,626.5 468.5,626.5C 466.782,627.224 464.948,627.891 463,628.5C 445.735,627.84 428.569,627.173 411.5,626.5 Z"/></g>
<g><path style="opacity:1" fill="#7199c1" d="M 632.5,444.5 C 633.499,504.998 633.832,565.664 633.5,626.5C 645.833,626.5 658.167,626.5 670.5,626.5C 670.168,565.664 670.501,504.998 671.5,444.5C 671.5,505.5 671.5,566.5 671.5,627.5C 658.5,627.5 645.5,627.5 632.5,627.5C 632.5,566.833 632.5,506.167 632.5,445.5C 632.5,445.167 632.5,444.833 632.5,444.5 Z"/></g>
<g><path style="opacity:1" fill="#7199c1" d="M 727.5,444.5 C 728.499,504.998 728.832,565.664 728.5,626.5C 740.833,626.5 753.167,626.5 765.5,626.5C 765.168,565.664 765.501,504.998 766.5,444.5C 766.5,444.833 766.5,445.167 766.5,445.5C 766.5,506.167 766.5,566.833 766.5,627.5C 753.5,627.5 740.5,627.5 727.5,627.5C 727.5,566.5 727.5,505.5 727.5,444.5 Z"/></g>
<g><path style="opacity:1" fill="#bdd0e2" d="M 931.5,626.5 C 960.833,626.5 990.167,626.5 1019.5,626.5C 1019.5,645.167 1019.5,663.833 1019.5,682.5C 1019.17,682.5 1018.83,682.5 1018.5,682.5C 1018.5,664.167 1018.5,645.833 1018.5,627.5C 989.329,627.831 960.329,627.498 931.5,626.5 Z"/></g>
<g><path style="opacity:1" fill="#8fafce" d="M 223.5,626.5 C 256.5,626.5 289.5,626.5 322.5,626.5C 322.5,645.5 322.5,664.5 322.5,683.5C 267.664,683.832 212.997,683.499 158.5,682.5C 212.833,682.5 267.167,682.5 321.5,682.5C 321.5,664.167 321.5,645.833 321.5,627.5C 288.662,627.832 255.996,627.498 223.5,626.5 Z"/></g>
<g><path style="opacity:1" fill="#91b1cf" d="M 368.5,681.5 C 414.15,682.469 459.817,682.803 505.5,682.5C 461.669,683.665 417.669,683.831 373.5,683C 371.618,682.802 369.952,682.302 368.5,681.5 Z"/></g>
<g><path style="opacity:1" fill="#95b3d1" d="M 712.5,680.5 C 715.522,680.804 718.522,681.304 721.5,682C 750.85,682.784 780.183,682.618 809.5,681.5C 808.391,682.29 807.058,682.79 805.5,683C 776.5,683.667 747.5,683.667 718.5,683C 716.148,682.76 714.148,681.927 712.5,680.5 Z"/></g>
</svg>
